<svg width="220" height="148" viewBox="0 0 220 148" fill="none" xmlns="http://www.w3.org/2000/svg">
<path d="M25.5168 16.5953L177.642 1.10003C198.378 -1.01104 216.316 14.9635 216.886 36.8674L217.855 74.1159C218.425 96.0197 201.353 113.511 180.559 113.187L162.746 112.916C162.969 121.318 164.435 132.027 169.575 140.486C170.51 142.024 168.91 143.849 167.254 143.134C156.468 138.469 134.775 127.506 128.187 112.382L27.9691 110.844C13.8327 110.629 2.36602 96.5523 1.91965 79.3969L1.16057 50.2226C0.714198 33.0672 11.4234 18.0298 25.5168 16.5953Z" fill="#FFD034"/>
<path d="M51.7606 43.3097C51.5505 42.7054 51.4214 41.9741 51.3731 41.1161C51.2683 39.2538 51.5265 37.7575 52.1475 36.6271C52.7778 35.4863 54.0631 34.8614 56.0034 34.7522C58.4994 34.6118 60.0392 35.7282 60.6226 38.1015C60.8758 39.1241 61.0465 40.4202 61.1349 41.99L61.2205 43.511L58.3246 43.674L58.2275 41.9482C58.1354 40.3102 57.9905 39.2131 57.7929 38.6569C57.5954 38.1007 57.3695 37.7368 57.1153 37.5653C56.8611 37.3937 56.539 37.3189 56.149 37.3409C55.4178 37.382 54.9063 37.6798 54.6148 38.2342C54.3232 38.7885 54.207 39.5922 54.2663 40.6452C54.3255 41.6983 54.5151 42.4603 54.835 42.9313C55.155 43.4024 55.5421 43.8501 55.9963 44.2745C56.45 44.6891 56.7029 44.9243 56.7549 44.98L58.6145 46.7387C60.8445 48.8238 62.0363 51.2313 62.1899 53.9614C62.315 56.1844 62.0646 57.9053 61.4387 59.124C60.822 60.3325 59.5484 60.991 57.6179 61.0996C55.2876 61.2307 53.7528 60.2901 53.0136 58.2776C52.5881 57.1474 52.323 55.6512 52.2182 53.7889C52.2155 53.7401 52.2127 53.6914 52.21 53.6426L52.0692 51.1417L55.0089 50.9763L55.1562 53.5942C55.2621 55.476 55.4724 56.7797 55.7871 57.5054C56.1013 58.2213 56.6288 58.5584 57.3699 58.5167C58.1109 58.475 58.6132 58.2756 58.8767 57.9184C59.1397 57.5515 59.2707 57.011 59.2696 56.2971C59.2784 55.5826 59.2577 54.7817 59.2078 53.8944C59.1074 52.1101 58.2282 50.4773 56.5701 48.9958L54.7935 47.4085C53.2053 45.9525 52.1943 44.5862 51.7606 43.3097ZM72.1891 47.8529C70.9919 48.4778 70.197 48.9529 69.8045 49.2782C69.412 49.6035 69.12 49.9769 68.9285 50.3985C68.7463 50.8097 68.6812 51.4785 68.7333 52.4048L68.8477 54.4377C68.9196 55.715 69.0824 56.6106 69.3363 57.1245C69.5897 57.6286 69.9893 57.8653 70.5353 57.8346C71.0814 57.8039 71.5406 57.6215 71.913 57.2876C72.2849 56.9439 72.5336 56.5827 72.659 56.2039L72.1891 47.8529ZM65.5427 44.7203C65.3935 42.0683 65.7085 40.2802 66.4879 39.356C67.2673 38.4319 68.4224 37.9267 69.9532 37.8406C71.484 37.7545 72.6115 38.0627 73.3357 38.7653C74.0696 39.4674 74.5607 40.6331 74.8089 42.2623C74.9166 42.9605 74.9993 43.8215 75.0569 44.8452L75.8971 59.7777L72.8843 59.9472L72.7773 58.0459C72.6509 58.5812 72.3368 59.083 71.835 59.5514C71.3326 60.01 70.6914 60.2613 69.9114 60.3052C67.4251 60.4451 66.0631 58.5753 65.8252 54.6958L65.7051 52.5605C65.6343 51.3027 65.9152 50.211 66.5478 49.2853C67.1896 48.3494 69.0335 47.2235 72.0797 45.9077L71.9842 44.2112C71.8783 42.3294 71.6782 41.206 71.3838 40.8411C71.0894 40.4763 70.6107 40.3125 69.9477 40.3498C69.2944 40.3865 68.8718 40.6988 68.6799 41.2867C68.488 41.8746 68.4343 42.9193 68.5188 44.4208L68.5616 45.1814L65.5781 45.3492L65.5427 44.7203ZM84.8267 37.2678L87.6055 37.1115L85.6955 59.2263L82.1708 59.4247L77.8212 37.662L80.6146 37.5048L82.8895 49.7743L83.6771 54.645L83.955 54.6294L84.1026 49.6914L84.8267 37.2678ZM91.0297 43.7411C90.8739 40.972 91.2628 39.0184 92.1964 37.8802C92.9281 36.9783 94.0545 36.4845 95.5756 36.3989C97.7791 36.2749 99.2171 37.1477 99.8896 39.0171C100.262 40.0721 100.499 41.5112 100.602 43.3345L100.835 47.4735L94.2828 47.8422L94.5288 52.2151C94.6358 54.1164 94.8536 55.2926 95.1822 55.7436C95.5108 56.1946 96.0017 56.4017 96.655 56.3649C97.3082 56.3282 97.7267 56.0308 97.9105 55.4727C98.1041 54.914 98.1879 54.3176 98.162 53.6833C98.1355 53.0392 98.1099 52.4978 98.0852 52.059L97.9857 50.2894L100.925 50.124L100.978 51.06C101.109 53.3903 101.035 55.0328 100.756 55.9874C100.487 56.9416 100.033 57.6469 99.3937 58.1035C98.7537 58.5503 97.9413 58.8014 96.9566 58.8568C95.9815 58.9117 95.1898 58.834 94.5813 58.6237C93.982 58.4031 93.4954 58.0979 93.1213 57.7081C92.757 57.3178 92.418 56.6816 92.1043 55.7994C91.7906 54.9172 91.5777 53.4815 91.4658 51.4925L91.0297 43.7411ZM97.5652 42.8158C97.4774 41.2558 97.3659 40.3182 97.2308 40.003C97.1055 39.6873 96.9482 39.4125 96.759 39.1786C96.5698 38.9447 96.246 38.8407 95.7878 38.8665C94.9102 38.9159 94.3753 39.3176 94.183 40.0718C93.9902 40.8163 93.9299 41.832 94.0023 43.119L94.1538 45.8101L97.7223 45.6093L97.5652 42.8158ZM119.487 35.3176L122.5 35.1481L123.734 57.086L120.721 57.2556L120.595 55.0179C120.403 55.7721 120.033 56.4042 119.484 56.9143C118.945 57.4142 118.193 57.6912 117.228 57.7456C116.272 57.7993 115.426 57.4508 114.689 56.7C113.962 55.9389 113.552 54.7344 113.459 53.0866L112.481 35.7118L115.48 35.5431L116.438 52.5816C116.535 54.3073 117.213 55.1349 118.471 55.0641C119.173 55.0246 119.685 54.7512 120.009 54.2439C120.342 53.7361 120.487 53.0825 120.442 52.283L119.487 35.3176ZM130.485 36.5327C130.72 35.8446 131.106 35.3191 131.643 34.9564C132.18 34.5838 132.76 34.38 133.384 34.3449C135.13 34.2467 136.287 35.0912 136.857 36.8784C137.213 37.993 137.441 39.4327 137.54 41.1974L137.987 49.139C138.151 52.0543 137.891 54.0349 137.207 55.0809C136.532 56.1263 135.527 56.6866 134.191 56.7618C133.655 56.7919 133.148 56.6542 132.671 56.3484C132.194 56.0427 131.815 55.6532 131.534 55.18L131.842 60.6498L128.844 60.8185L127.384 34.8733L130.382 34.7046L130.485 36.5327ZM134.498 40.8405C134.493 40.7429 134.487 40.6503 134.482 40.5626C134.477 40.4748 134.473 40.3919 134.468 40.3139C134.464 40.2359 134.46 40.1628 134.456 40.0946C134.452 40.0263 134.449 39.9629 134.445 39.9044C134.442 39.8459 134.439 39.7923 134.436 39.7436C134.394 38.9928 134.3 38.4503 134.154 38.1162C133.996 37.7436 133.849 37.4732 133.712 37.3048C133.439 36.9681 133.059 36.8134 132.571 36.8408C132.093 36.8677 131.723 36.9815 131.461 37.1821C130.86 37.6364 130.62 38.9264 130.739 41.0519L131.245 50.0465C131.333 51.5968 131.527 52.7009 131.828 53.3589C132.139 54.0163 132.66 54.3244 133.391 54.2832C134.132 54.2415 134.605 53.8726 134.811 53.1764C135.026 52.4796 135.088 51.3268 134.998 49.718L134.498 40.8405ZM149.984 29.787L152.983 29.6183L153.206 33.5964L155.576 33.4631L155.701 35.6861L153.331 35.8194L154.233 51.8341C154.264 52.3996 154.416 52.7481 154.688 52.8796C154.958 53.0013 155.63 53.0319 156.703 52.9716L156.837 55.3555L154.775 55.4715C153.39 55.5494 152.474 55.3516 152.027 54.8779C151.579 54.3945 151.32 53.5239 151.249 52.2661L150.333 35.9881L148.33 36.1009L148.205 33.8778L150.208 33.7651L149.984 29.787ZM159.274 40.0186C159.074 36.4597 159.768 34.1955 161.357 33.2258C162 32.8375 162.761 32.6186 163.638 32.5693C165.93 32.4403 167.444 33.2794 168.181 35.0866C168.637 36.2249 168.914 37.6862 169.015 39.4705L169.452 47.2365C169.625 50.3176 169.325 52.3641 168.55 53.376C167.776 54.3879 166.604 54.938 165.034 55.0263C162.743 55.1553 161.23 54.2622 160.496 52.3473C160.082 51.2458 159.821 49.7249 159.711 47.7846L159.274 40.0186ZM165.968 39.0404C165.851 36.9538 165.482 35.703 164.862 35.288C164.608 35.1165 164.286 35.0417 163.896 35.0636C163.106 35.108 162.614 35.4927 162.42 36.2177C162.236 36.942 162.181 37.9526 162.253 39.2494L162.771 48.4487C162.892 50.6035 163.268 51.8882 163.898 52.3027C164.152 52.4742 164.459 52.5498 164.82 52.5295C164.839 52.5284 164.859 52.5273 164.878 52.5262C165.649 52.4829 166.126 52.0941 166.309 51.36C166.502 50.6156 166.561 49.5755 166.486 48.2397L165.968 39.0404ZM32.6213 94.9196L32.4987 92.7404C30.6536 92.629 29.306 92.0593 28.4559 91.0312C27.6058 90.0031 27.1231 88.4653 27.0079 86.4178L26.9626 85.6134L32.0522 85.327L32.0868 85.9413C32.1713 87.4428 32.6864 88.167 33.6322 88.1138C34.0417 88.0907 34.3319 87.9472 34.5029 87.6833C34.6837 87.4188 34.7644 87.116 34.7452 86.7747C34.7112 86.1702 34.3695 85.5732 33.7202 84.9837L29.2849 80.9932C27.6577 79.5394 26.7933 77.9105 26.6918 76.1068C26.6369 75.1317 26.8081 74.2614 27.2051 73.4957C27.6114 72.7197 28.167 72.0771 28.8719 71.5679C29.586 71.0485 30.3775 70.6861 31.2462 70.4807L31.1467 68.711L33.6768 68.5687L33.7739 70.2944C35.4533 70.4151 36.7595 71.0312 37.6925 72.1427C38.6256 73.2541 39.1459 74.7653 39.2534 76.6764L34.0322 76.9702L33.9787 76.0195C33.9551 75.6003 33.8249 75.2848 33.588 75.0732C33.3511 74.8615 33.0474 74.7661 32.6769 74.787C32.2674 74.81 31.966 74.9297 31.7728 75.146C31.5796 75.3622 31.4926 75.641 31.5118 75.9823C31.5392 76.4698 32.0624 77.1641 33.0815 78.0653L37.4037 81.8715C38.0416 82.4323 38.599 83.1247 39.0757 83.9488C39.5622 84.7724 39.8357 85.7205 39.896 86.793C39.9865 88.4018 39.5666 89.7165 38.6361 90.7372C37.7051 91.7481 36.5032 92.3781 35.0305 92.6273L35.1515 94.7772L32.6213 94.9196ZM48.4419 92.6649C46.1701 92.7928 44.4837 92.2861 43.3827 91.145C42.2817 90.0039 41.6632 88.2243 41.5271 85.8062L41.3757 83.1152L46.6554 82.8181L46.8077 85.5238C46.8461 86.2063 46.9616 86.7818 47.1542 87.2502C47.3561 87.7083 47.7544 87.9207 48.3491 87.8872C48.9537 87.8532 49.3245 87.578 49.4617 87.0617C49.5984 86.5356 49.6341 85.6924 49.5688 84.5321L49.5326 83.8886C49.4827 83.0014 49.288 82.2347 48.9484 81.5887C48.6186 80.9422 48.0198 80.6433 47.152 80.6921C47.0448 80.6982 46.9475 80.7085 46.8603 80.7232C46.7823 80.7276 46.7144 80.7363 46.6564 80.7494L46.3964 76.1278C47.2836 76.0778 47.9503 75.8447 48.3964 75.4284C48.8419 75.0023 49.0386 74.3261 48.9865 73.3998C48.9047 71.947 48.4446 71.2442 47.6061 71.2914C47.0601 71.3221 46.7016 71.5575 46.5308 71.9975C46.3691 72.4272 46.3066 72.9686 46.3434 73.6219L46.387 74.397L41.0634 74.6966C41.0471 74.5801 41.0294 74.4393 41.0103 74.2741C41.001 74.1083 40.9919 73.9475 40.9831 73.7915C40.8504 71.4319 41.3039 69.6702 42.3437 68.5065C43.3834 67.3427 45.0392 66.6969 47.311 66.5691C51.6986 66.3222 54.0208 68.4803 54.2775 73.0434C54.3489 74.311 54.2372 75.3687 53.9426 76.2167C53.6474 77.0549 53.046 77.6658 52.1384 78.0494C52.8894 78.3593 53.4558 78.7774 53.8375 79.3036C54.2192 79.8299 54.4865 80.4946 54.6393 81.2979C54.7921 82.1011 54.9008 83.078 54.9656 84.2285C55.1104 86.8025 54.6809 88.8172 53.6771 90.2723C52.683 91.727 50.938 92.5245 48.4419 92.6649ZM64.1602 91.7218C61.9859 91.8442 60.2697 91.3294 59.0116 90.1776C57.7633 89.0252 57.0746 87.3033 56.9457 85.012L56.2923 73.3995C56.1563 70.9815 56.6127 69.0974 57.6615 67.7473C58.7196 66.3869 60.3943 65.6422 62.6856 65.5133C64.9866 65.3838 66.7343 65.9359 67.9285 67.1696C69.1222 68.3935 69.7871 70.2145 69.9231 72.6326L70.5765 84.2451C70.7054 86.5364 70.2143 88.3246 69.1031 89.6098C67.9919 90.8949 66.3443 91.5989 64.1602 91.7218ZM63.8936 86.9832C64.2934 86.9607 64.5952 86.7628 64.7992 86.3894C65.0031 86.0161 65.0925 85.6051 65.0673 85.1566L64.3521 72.4472C64.3181 71.8427 64.2203 71.32 64.0585 70.8792C63.906 70.4281 63.5372 70.219 62.9522 70.2519C62.3672 70.2848 62.0193 70.5342 61.9086 71.0002C61.8071 71.4558 61.7733 71.9859 61.8073 72.5904L62.5225 85.2998C62.5477 85.7483 62.6826 86.1466 62.9271 86.4948C63.1814 86.8424 63.5036 87.0052 63.8936 86.9832ZM73.1995 90.9785L71.7512 65.2379L76.9286 64.9466L77.568 76.3105L79.6581 68.6077L85.0841 68.3024L82.3299 78.0232L87.2106 90.1901L81.6383 90.5037L77.7951 80.3471L78.3769 90.6872L73.1995 90.9785ZM96.3366 93.3445L94.8965 67.7503L100.22 67.4507L100.352 69.7908C100.628 68.9634 101.036 68.3095 101.576 67.8292C102.126 67.3386 102.932 67.0634 103.995 67.0036C105.428 66.9229 106.467 67.3878 107.11 68.3981C107.764 69.4079 108.138 70.7562 108.233 72.443L108.84 83.2365C108.903 84.3578 108.8 85.3808 108.529 86.3057C108.267 87.2203 107.81 87.96 107.157 88.5249C106.513 89.0796 105.646 89.3876 104.554 89.449C103.13 89.5291 102.053 88.729 101.323 87.0486L101.66 93.045L96.3366 93.3445ZM102.481 85.4723C103.027 85.4415 103.338 85.1502 103.415 84.5981C103.501 84.0455 103.522 83.3695 103.477 82.5699L102.995 73.9995C102.949 73.1903 102.853 72.5208 102.706 71.9911C102.568 71.4511 102.226 71.1965 101.68 71.2272C101.114 71.259 100.779 71.5567 100.674 72.1201C100.578 72.6733 100.552 73.3447 100.596 74.1345L101.078 82.7049C101.123 83.4947 101.224 84.1639 101.382 84.7125C101.549 85.2508 101.916 85.5041 102.481 85.4723ZM117.921 88.6969C116.36 88.7847 115.101 88.5621 114.142 88.0293C113.182 87.4964 112.472 86.6903 112.01 85.611C111.549 84.5317 111.274 83.2169 111.187 81.6666L110.691 72.8476C110.576 70.8098 111.074 69.2363 112.186 68.1272C113.296 67.0084 114.876 66.3914 116.923 66.2761C121.135 66.0391 123.357 67.9877 123.59 72.1218L123.68 73.7159C123.788 75.6465 123.842 76.9443 123.84 77.6096L116.235 78.0375L116.474 82.2788C116.496 82.6688 116.542 83.0526 116.612 83.4301C116.681 83.7979 116.806 84.099 116.985 84.3334C117.175 84.5673 117.459 84.6735 117.84 84.6521C118.386 84.6214 118.714 84.3682 118.824 83.8925C118.934 83.4071 118.967 82.7841 118.924 82.0236L118.806 79.9175L124.012 79.6246L124.082 80.8677C124.174 82.5057 124.047 83.892 123.7 85.0266C123.362 86.1509 122.727 87.0229 121.793 87.6427C120.869 88.2523 119.578 88.6037 117.921 88.6969ZM116.059 75.4358L118.546 75.2959L118.379 72.3416C118.335 71.5518 118.206 70.9918 117.991 70.6615C117.777 70.3215 117.474 70.1625 117.084 70.1844C116.665 70.208 116.348 70.3921 116.132 70.7368C115.927 71.0809 115.847 71.6625 115.893 72.4815L116.059 75.4358ZM126.989 87.9519L125.755 66.014L131.078 65.7144L131.216 68.1569C131.422 67.2943 131.833 66.6061 132.449 66.0921C133.066 65.5781 133.862 65.2937 134.837 65.2389L135.083 69.6118C134.654 69.636 134.145 69.7135 133.555 69.8445C132.966 69.9657 132.451 70.1218 132.012 70.3128C131.572 70.494 131.358 70.6822 131.369 70.8772L132.313 87.6524L126.989 87.9519ZM148.794 86.725L148.318 78.257L143.236 61.2157L148.34 60.9285L150.264 69.5646L151.207 60.7672L156.297 60.4809L153.173 77.9838L153.65 86.4518L148.794 86.725ZM165.714 86.0078C164.154 86.0955 162.894 85.873 161.935 85.3401C160.976 84.8072 160.265 84.0011 159.803 82.9218C159.342 81.8426 159.067 80.5278 158.98 78.9775L158.484 70.1584C158.369 68.1206 158.867 66.5472 159.979 65.4381C161.09 64.3192 162.669 63.7022 164.716 63.587C168.928 63.35 171.151 65.2985 171.383 69.4326L171.473 71.0268C171.582 72.9573 171.635 74.2552 171.633 74.9204L164.028 75.3483L164.267 79.5897C164.289 79.9797 164.335 80.3634 164.405 80.7409C164.475 81.1087 164.599 81.4098 164.779 81.6442C164.968 81.8781 165.253 81.9843 165.633 81.963C166.179 81.9322 166.507 81.679 166.617 81.2033C166.727 80.7179 166.76 80.0949 166.717 79.3344L166.599 77.2284L171.805 76.9354L171.875 78.1785C171.968 79.8166 171.84 81.2029 171.493 82.3374C171.155 83.4617 170.52 84.3338 169.586 84.9536C168.662 85.5631 167.371 85.9145 165.714 86.0078ZM163.852 72.7467L166.339 72.6068L166.173 69.6524C166.128 68.8627 165.999 68.3027 165.785 67.9724C165.57 67.6323 165.267 67.4733 164.877 67.4952C164.458 67.5188 164.141 67.703 163.926 68.0476C163.72 68.3918 163.64 68.9733 163.686 69.7923L163.852 72.7467ZM178.788 85.2721C177.569 85.3407 176.622 85.1103 175.947 84.581C175.281 84.0512 174.804 83.3004 174.514 82.3288C174.225 81.3572 174.045 80.2474 173.975 78.9994C173.9 77.6636 173.97 76.5642 174.186 75.7011C174.401 74.8283 174.81 74.101 175.413 73.5194C176.025 72.9371 176.882 72.4244 177.982 71.981L181.166 70.6868L181.039 68.4345C180.973 67.2547 180.554 66.6865 179.784 66.7298C179.082 66.7693 178.758 67.2669 178.812 68.2224L178.886 69.5387L173.796 69.825C173.782 69.7476 173.772 69.6503 173.765 69.5333C173.758 69.4066 173.75 69.2652 173.741 69.1092C173.618 66.9252 174.043 65.351 175.016 64.3866C175.998 63.4119 177.605 62.8618 179.838 62.7361C181.008 62.6703 182.068 62.8209 183.018 63.1881C183.967 63.5455 184.733 64.1137 185.315 64.8928C185.906 65.6714 186.235 66.6554 186.302 67.8449L187.243 84.5616L182.036 84.8546L181.89 82.2513C181.688 83.1821 181.308 83.9077 180.751 84.4281C180.193 84.9485 179.539 85.2299 178.788 85.2721ZM180.621 81.0902C181.051 81.0661 181.333 80.8693 181.469 80.4997C181.604 80.1302 181.66 79.7358 181.637 79.3165L181.293 73.2032C180.588 73.5363 180.048 73.9383 179.673 74.4093C179.298 74.8706 179.135 75.5302 179.183 76.3882L179.342 79.2109C179.415 80.5077 179.841 81.1341 180.621 81.0902ZM189.86 84.4144L188.626 62.4764L193.95 62.1769L194.087 64.6193C194.293 63.7568 194.704 63.0685 195.321 62.5545C195.937 62.0406 196.733 61.7562 197.708 61.7013L197.954 66.0743C197.525 66.0984 197.016 66.176 196.427 66.3069C195.837 66.4281 195.322 66.5842 194.883 66.7752C194.443 66.9565 194.229 67.1446 194.24 67.3396L195.184 84.1148L189.86 84.4144Z" fill="#403204"/>
</svg>
