<svg width="282" height="214" viewBox="0 0 282 214" fill="none" xmlns="http://www.w3.org/2000/svg">
<g clip-path="url(#clip0_299_525)">
<path d="M251.775 212.045H42.0408C22.1061 212.045 5.92755 195.893 5.92755 175.948C5.92755 156.022 22.0866 139.851 42.0408 139.851H251.775V212.025V212.045Z" fill="#FF882E"/>
<path d="M59.5496 214C38.5586 214 21.4801 196.929 21.4801 175.948C21.4801 154.966 38.5586 137.896 59.5496 137.896C60.6256 137.896 61.5059 138.775 61.5059 139.851C61.5059 140.926 60.6256 141.806 59.5496 141.806C40.7301 141.806 25.3927 157.117 25.3927 175.948C25.3927 194.778 40.7105 210.089 59.5496 210.089C60.6256 210.089 61.5059 210.969 61.5059 212.045C61.5059 213.12 60.6256 214 59.5496 214Z" fill="#2C5680"/>
<path d="M108.34 214C87.3486 214 70.2701 196.929 70.2701 175.948C70.2701 154.966 87.3486 137.896 108.34 137.896C109.416 137.896 110.296 138.775 110.296 139.851C110.296 140.926 109.416 141.806 108.34 141.806C89.5201 141.806 74.1827 157.117 74.1827 175.948C74.1827 194.778 89.5005 210.089 108.34 210.089C109.416 210.089 110.296 210.969 110.296 212.045C110.296 213.12 109.416 214 108.34 214Z" fill="#2C5680"/>
<path d="M251.775 212.045H145.49C125.555 212.045 109.376 195.893 109.376 175.948C109.376 156.022 125.535 139.851 145.49 139.851H251.775V212.025V212.045Z" fill="white"/>
<path d="M251.775 214H145.49C124.499 214 107.42 196.929 107.42 175.948C107.42 154.966 124.499 137.896 145.49 137.896H251.775C252.851 137.896 253.732 138.775 253.732 139.851V212.025C253.732 213.101 252.851 213.98 251.775 213.98V214ZM145.47 141.806C126.651 141.806 111.313 157.117 111.313 175.948C111.313 194.778 126.631 210.089 145.47 210.089H249.799V141.826H145.47V141.806Z" fill="#2C5680"/>
<path d="M249.897 161.321H156.21C155.134 161.321 154.254 160.442 154.254 159.366C154.254 158.291 155.134 157.411 156.21 157.411H249.897C250.973 157.411 251.854 158.291 251.854 159.366C251.854 160.442 250.973 161.321 249.897 161.321Z" fill="#2C5680"/>
<path d="M247.941 174.97H199.151C198.075 174.97 197.195 174.09 197.195 173.014C197.195 171.939 198.075 171.059 199.151 171.059H247.941C249.017 171.059 249.897 171.939 249.897 173.014C249.897 174.09 249.017 174.97 247.941 174.97Z" fill="#2C5680"/>
<path d="M214.664 139.851L7.82518 139.851V96.9489L214.664 96.9489C226.519 96.9489 236.125 106.57 236.125 118.4C236.125 130.25 226.5 139.851 214.664 139.851Z" fill="#2C5680"/>
<path d="M214.664 141.806H7.8056C6.72964 141.806 5.8493 140.926 5.8493 139.851V96.9491C5.8493 95.8736 6.72964 94.9937 7.8056 94.9937H214.645C227.556 94.9937 238.062 105.494 238.062 118.4C238.062 131.306 227.556 141.806 214.645 141.806H214.664ZM9.7619 137.895H214.645C225.404 137.895 234.149 129.155 234.149 118.4C234.149 107.645 225.404 98.9045 214.645 98.9045H9.7619V137.895Z" fill="#2C5680"/>
<path d="M117.965 139.851L7.82516 139.851V96.9489L117.965 96.9489C129.82 96.9489 139.425 106.57 139.425 118.4C139.425 130.25 129.8 139.851 117.965 139.851Z" fill="white"/>
<path d="M117.945 141.806H7.8056C6.72964 141.806 5.8493 140.926 5.8493 139.851V96.9491C5.8493 95.8736 6.72964 94.9937 7.8056 94.9937H117.945C130.857 94.9937 141.362 105.494 141.362 118.4C141.362 131.306 130.857 141.806 117.945 141.806ZM9.76189 137.895H117.945C128.705 137.895 137.449 129.155 137.449 118.4C137.449 107.645 128.705 98.9045 117.945 98.9045H9.76189V137.895Z" fill="#2C5680"/>
<path d="M111.568 110.481H8.92071C7.84475 110.481 6.96442 109.601 6.96442 108.525C6.96442 107.45 7.84475 106.57 8.92071 106.57H111.568C112.644 106.57 113.524 107.45 113.524 108.525C113.524 109.601 112.644 110.481 111.568 110.481Z" fill="#2C5680"/>
<path d="M56.6739 122.526H10.0945C9.01852 122.526 8.13818 121.646 8.13818 120.571C8.13818 119.495 9.01852 118.615 10.0945 118.615H56.6934C57.7694 118.615 58.6497 119.495 58.6497 120.571C58.6497 121.646 57.7694 122.526 56.6934 122.526H56.6739Z" fill="#2C5680"/>
<path d="M226.48 94.9741L1.9563 94.9741V48.7482L226.48 48.7482C238.336 48.7482 247.941 58.3689 247.941 70.1991V73.5233C247.941 85.3731 238.316 94.9741 226.48 94.9741Z" fill="white"/>
<path d="M226.48 96.9297H1.9563C0.880333 96.9297 0 96.0497 0 94.9743V48.7484C0 47.6729 0.880333 46.793 1.9563 46.793H226.48C239.392 46.793 249.897 57.2935 249.897 70.1992V73.5234C249.897 86.4291 239.392 96.9297 226.48 96.9297ZM3.91259 93.0188H226.48C237.24 93.0188 245.985 84.2782 245.985 73.5234V70.1992C245.985 59.4445 237.24 50.7038 226.48 50.7038H3.91259V93.0188Z" fill="#2C5680"/>
<path d="M122.288 94.9741L1.95628 94.9741V48.7482L122.288 48.7482C134.143 48.7482 143.749 58.3689 143.749 70.1991V73.5233C143.749 85.3731 134.124 94.9741 122.288 94.9741Z" fill="white"/>
<path d="M122.288 96.9297H1.9563C0.880333 96.9297 0 96.0497 0 94.9743V48.7484C0 47.6729 0.880333 46.793 1.9563 46.793H122.288C135.2 46.793 145.705 57.2935 145.705 70.1992V73.5234C145.705 86.4291 135.2 96.9297 122.288 96.9297ZM3.91259 93.0188H122.288C133.048 93.0188 141.792 84.2782 141.792 73.5234V70.1992C141.792 59.4445 133.048 50.7038 122.288 50.7038H3.91259V93.0188Z" fill="#2C5680"/>
<path d="M113.739 63.1989H3.16919C2.09322 63.1989 1.21289 62.319 1.21289 61.2435C1.21289 60.168 2.09322 59.2881 3.16919 59.2881H113.759C114.835 59.2881 115.715 60.168 115.715 61.2435C115.715 62.319 114.835 63.1989 113.759 63.1989H113.739Z" fill="#2C5680"/>
<path d="M215.877 189.049H151.476C150.4 189.049 149.52 188.169 149.52 187.094C149.52 186.018 150.4 185.138 151.476 185.138H215.877C216.953 185.138 217.833 186.018 217.833 187.094C217.833 188.169 216.953 189.049 215.877 189.049Z" fill="#2C5680"/>
<path d="M273.49 101.407H273.294L244.576 72.6042L244.341 67.8721L242.678 66.1709C239.568 68.5369 236.477 70.7856 232.838 72.3304C210.673 81.7359 185.594 68.0089 181.27 44.6027L180.605 39.6164C180.664 38.3063 180.527 36.957 180.605 35.6469C181.838 15.2911 199.092 -0.782357 219.712 0.0389149C245.261 1.05573 262.633 26.9062 253.438 50.9773C251.853 55.1228 249.486 58.623 246.767 62.0841L248.469 63.7462L253.184 63.9808L281.98 92.8035L273.471 101.407H273.49ZM244.341 37.6805C244.341 23.2887 232.662 11.6149 218.264 11.6149C203.866 11.6149 192.186 23.2887 192.186 37.6805C192.186 52.0724 203.866 63.7462 218.264 63.7462C232.662 63.7462 244.341 52.0724 244.341 37.6805Z" fill="#FF882E"/>
<path d="M244.341 37.6804C244.341 23.2885 232.662 11.6147 218.264 11.6147C203.866 11.6147 192.186 23.2885 192.186 37.6804C192.186 52.0722 203.866 63.746 218.264 63.746C232.662 63.746 244.341 52.0722 244.341 37.6804Z" fill="white"/>
</g>
<defs>
<clipPath id="clip0_299_525">
<rect width="282" height="214" fill="white"/>
</clipPath>
</defs>
</svg>
