<svg width="337" height="251" viewBox="0 0 337 251" fill="none" xmlns="http://www.w3.org/2000/svg">
<g clip-path="url(#clip0_299_393)">
<path d="M102.683 135.461L111.24 140.549C116.52 143.689 123.344 141.951 126.481 136.668L151.453 94.6182C154.59 89.3349 152.853 82.5068 147.573 79.3674L139.016 74.2793C133.736 71.1398 126.912 72.8777 123.775 78.161L98.8032 120.21C95.6656 125.494 97.4025 132.322 102.683 135.461Z" fill="white"/>
<path d="M116.904 143.26C114.768 143.26 112.609 142.7 110.649 141.532L102.095 136.453C96.2723 132.985 94.3468 125.43 97.8126 119.592L122.785 77.5443C126.251 71.7177 133.801 69.7911 139.636 73.259L148.189 78.3383C154.012 81.8063 155.938 89.361 152.472 95.1993L127.5 137.247C125.201 141.112 121.105 143.26 116.915 143.26H116.904ZM103.286 134.444L111.839 139.524C116.554 142.326 122.68 140.773 125.492 136.044L150.465 93.9966C153.266 89.2793 151.713 83.1491 146.987 80.3467L138.434 75.2674C133.719 72.465 127.593 74.018 124.781 78.747L99.8081 120.794C97.0075 125.512 98.5595 131.642 103.286 134.444Z" fill="#2C5680"/>
<path d="M188.995 57.4419C189.771 44.0186 172.859 32.1217 151.221 30.8695C129.583 29.6173 111.414 39.484 110.638 52.9073C109.862 66.3307 126.774 78.2275 148.412 79.4797C170.049 80.7319 188.219 70.8652 188.995 57.4419Z" fill="#2C5680"/>
<path d="M90.7295 74.9172C92.83 71.1573 98.548 70.3633 103.508 73.1307C104.126 73.4693 104.698 73.8546 105.223 74.2633C107.067 52.1362 124.699 35.3102 145.121 36.4895C165.892 37.6922 181.669 57.0754 180.35 79.7863C179.032 102.497 161.131 119.93 140.359 118.728C123.38 117.747 109.751 104.611 106.051 87.4462C103.332 88.859 99.4349 88.6956 95.9224 86.7339C90.9629 83.9666 88.6407 78.6771 90.7295 74.9172Z" fill="white"/>
<path d="M142.378 119.954C141.69 119.954 140.99 119.93 140.289 119.895C123.754 118.938 109.517 106.339 105.223 89.0575C102.247 90.0266 98.5947 89.5713 95.3506 87.7614C89.831 84.6788 87.3104 78.6653 89.7143 74.3567C90.9045 72.2082 93.0984 70.8186 95.8874 70.4333C98.548 70.0597 101.465 70.6552 104.079 72.1264C104.138 72.1615 104.208 72.1965 104.266 72.2315C107.02 50.2211 124.676 34.1658 145.19 35.3452C166.569 36.5829 182.871 56.5615 181.517 79.868C180.21 102.416 162.87 119.965 142.378 119.965V119.954ZM106.051 86.2901C106.226 86.2901 106.39 86.3252 106.553 86.4069C106.88 86.5587 107.125 86.8623 107.195 87.2126C110.906 104.436 124.267 116.638 140.429 117.572C160.536 118.751 177.911 101.762 179.183 79.7396C180.455 57.7175 165.145 38.8481 145.05 37.6805C125.189 36.5245 108.199 52.6499 106.39 74.38C106.355 74.812 106.086 75.1857 105.701 75.3492C105.305 75.5243 104.849 75.4659 104.511 75.1974C104.021 74.812 103.484 74.4617 102.947 74.1581C100.765 72.9438 98.3729 72.4417 96.2141 72.7453C94.172 73.0255 92.5849 74.0064 91.7564 75.501C89.9827 78.6887 92.1065 83.2776 96.4942 85.7297C99.5282 87.4228 103.076 87.6913 105.526 86.4302C105.69 86.3485 105.876 86.3018 106.063 86.3018L106.051 86.2901Z" fill="#2C5680"/>
<path d="M145.832 24.696C160.057 22.1038 173.325 24.6026 181.167 30.4525C183.326 32.0639 181.436 35.4268 178.903 34.5043C171.318 31.737 161.574 30.9663 151.34 32.8346C130.265 36.6762 115.083 50.221 117.429 63.1003C117.522 63.614 117.651 64.1161 117.791 64.6066C114.675 61.9443 112.598 58.6865 111.921 54.9617C109.575 42.0824 124.757 28.5376 145.832 24.696Z" fill="#2C5680"/>
<path d="M81.6974 51.9256C86.9019 36.3024 102.387 26.5057 118.724 28.5024L147.711 32.0521L144.164 36.4775C147.279 31.5733 158.774 55.6738 128.153 56.2226C121.723 56.3394 119.319 63.1001 117.429 69.6741C116.169 74.0645 115.118 78.3965 114.232 82.3315C113.776 84.3515 104.943 83.8611 105.223 74.2746C104.698 73.866 104.114 73.4806 103.507 73.142C98.5479 70.3747 92.8299 71.1687 90.7295 74.9285C88.629 78.6884 90.9628 83.9779 95.9223 86.7452C99.4465 88.7069 103.332 88.8704 106.051 87.4575C107.533 94.3233 110.602 100.547 114.838 105.603L106.915 105.148C102.574 104.891 98.7463 102.205 97.0192 98.2116L93.7402 90.5868L93.2734 90.2249C81.6974 81.2105 77.0529 65.8675 81.6857 51.949L81.6974 51.9256Z" fill="#2C5680"/>
<path d="M168.774 80.6619C168.553 82.5885 169.486 84.2817 170.875 84.4451C172.263 84.6086 173.559 83.184 173.792 81.2574C174.014 79.3308 173.08 77.6377 171.692 77.4742C170.303 77.3107 169.008 78.7353 168.774 80.6619Z" fill="#2C5680"/>
<path d="M143.335 78.2801C143.113 80.2067 144.047 81.8998 145.436 82.0633C146.824 82.2268 148.119 80.8022 148.353 78.8756C148.586 76.9489 147.641 75.2558 146.252 75.0924C144.864 74.9289 143.568 76.3534 143.335 78.2801Z" fill="#2C5680"/>
<path d="M146.848 102.474C146.766 102.474 146.684 102.474 146.602 102.45C143.72 101.878 141.153 100.01 139.729 97.4411C139.391 96.8222 139.613 96.0516 140.231 95.713C140.838 95.3743 141.62 95.5962 141.958 96.2151C143.02 98.1417 144.945 99.5429 147.093 99.9632C147.781 100.103 148.225 100.769 148.096 101.458C147.979 102.065 147.443 102.485 146.848 102.485V102.474Z" fill="#2C5680"/>
<path d="M158.319 91.0772C157.712 91.0772 157.175 90.6335 157.07 90.0146C156.953 89.3257 157.42 88.6601 158.108 88.5434C160.057 88.2164 161.493 86.4766 161.446 84.5033L161.306 78.2563C161.294 77.5557 161.843 76.9719 162.543 76.9602C163.231 76.9368 163.826 77.4973 163.838 78.1979L163.978 84.4449C164.06 87.6793 161.714 90.5167 158.529 91.0538C158.459 91.0655 158.389 91.0772 158.319 91.0772Z" fill="#2C5680"/>
<path d="M141.911 71.9278C141.631 71.9278 141.351 71.8344 141.118 71.6476C140.569 71.2039 140.476 70.4099 140.919 69.8611C142.693 67.6425 145.972 66.8368 148.563 68.0162C149.205 68.3081 149.485 69.0554 149.193 69.6976C148.901 70.3398 148.154 70.62 147.513 70.3281C145.972 69.6392 143.953 70.1179 142.903 71.4374C142.658 71.7527 142.285 71.9161 141.911 71.9161V71.9278Z" fill="#2C5680"/>
<path d="M175.566 75.1506C175.286 75.1506 174.994 75.0572 174.761 74.8587C173.477 73.7962 171.937 73.0255 170.326 72.6168C169.649 72.4417 169.229 71.7528 169.404 71.0755C169.579 70.3983 170.268 69.9779 170.945 70.1531C172.917 70.6552 174.796 71.601 176.371 72.8971C176.919 73.3408 176.989 74.1465 176.546 74.6836C176.289 74.9872 175.928 75.1506 175.566 75.1506Z" fill="#2C5680"/>
<path d="M106.168 131.409L136.672 125.932C145.599 124.332 154.573 128.536 159.054 136.429L219.093 242.079H122.914L106.168 131.42V131.409Z" fill="#FF882E"/>
<path d="M121.747 242.067H217.926L176.884 169.848H110.824L121.747 242.067Z" fill="white"/>
<path d="M217.926 243.235H121.747C121.175 243.235 120.673 242.815 120.591 242.243L109.669 170.023C109.622 169.684 109.716 169.346 109.937 169.089C110.159 168.832 110.486 168.68 110.824 168.68H176.896C177.316 168.68 177.701 168.902 177.911 169.276L218.953 241.495C219.163 241.857 219.151 242.301 218.953 242.663C218.743 243.025 218.357 243.247 217.949 243.247L217.926 243.235ZM122.75 240.9H215.919L176.208 171.015H112.178L122.75 240.9Z" fill="#2C5680"/>
<path d="M38.1121 163.636L69.7362 122.02C77.4613 111.862 92.013 110.028 102.014 117.957L116.787 129.68L123.229 122.838H123.52C135.75 122.838 146.276 131.478 148.68 143.47L154.176 248.431H25.871L38.1005 163.624L38.1121 163.636Z" fill="#FF882E"/>
<path d="M161.201 204.807H164.62C168.576 204.807 172.123 202.332 173.477 198.607C174.469 195.875 172.45 192.991 169.544 192.991H140.803L161.201 204.807Z" fill="white"/>
<path d="M164.632 205.975H161.213C160.571 205.975 160.046 205.45 160.046 204.808C160.046 204.165 160.571 203.64 161.213 203.64H164.632C168.086 203.64 171.202 201.456 172.392 198.199C172.73 197.265 172.602 196.26 172.03 195.443C171.458 194.626 170.56 194.159 169.568 194.159H140.826C140.184 194.159 139.659 193.633 139.659 192.991C139.659 192.349 140.184 191.823 140.826 191.823H169.568C171.307 191.823 172.952 192.676 173.944 194.1C174.947 195.525 175.181 197.358 174.586 198.993C173.069 203.161 169.066 205.964 164.632 205.964V205.975Z" fill="#2C5680"/>
<path d="M38.1122 163.636L7.02501 204.621C-8.70531 225.358 9.72064 254.515 35.1949 249.19L132.588 228.803L144.339 237.035C148.143 239.697 153.079 240.141 157.292 238.179L160.512 236.684C164.433 239.3 169.533 239.393 173.547 236.918L176.254 235.248L150.943 211.545C154.094 213.285 169.276 219.497 178.507 220.209C181.074 220.407 183.559 219.275 185.158 217.266L185.998 216.204L157.012 199.53C147.839 194.719 144.922 192.127 137.897 193.084L67.4724 202.671L86.0851 182.26C86.0851 182.26 74.2756 163.636 38.1356 163.636H38.1122Z" fill="white"/>
<path d="M29.0918 251C19.2078 251 10.1991 246.073 4.6678 237.315C-2.03042 226.713 -1.49363 213.915 6.09146 203.932L37.1787 162.935C37.4004 162.643 37.7388 162.468 38.1122 162.468C74.474 162.468 86.5518 180.847 87.0536 181.63C87.3337 182.073 87.287 182.657 86.9253 183.042L70.4831 201.071L137.722 191.928C143.919 191.088 147.256 192.909 153.324 196.225C154.584 196.914 155.973 197.673 157.548 198.502L186.57 215.2C186.862 215.375 187.072 215.655 187.13 215.994C187.189 216.332 187.107 216.671 186.897 216.94L186.057 218.002C184.19 220.349 181.319 221.622 178.402 221.388C171.925 220.875 162.881 217.827 156.731 215.387L177.036 234.408C177.305 234.653 177.433 235.015 177.398 235.377C177.363 235.739 177.153 236.066 176.85 236.253L174.142 237.922C169.941 240.515 164.62 240.526 160.407 238.016L157.77 239.242C153.196 241.367 147.793 240.888 143.662 237.992L132.331 230.052L35.44 250.335C33.3045 250.778 31.1923 251 29.1152 251H29.0918ZM38.684 164.804L7.9469 205.333C0.968608 214.534 0.466824 226.304 6.63993 236.066C12.813 245.827 23.6656 250.416 34.9498 248.058L132.342 227.67C132.658 227.6 132.984 227.67 133.253 227.857L145.004 236.089C148.458 238.506 152.974 238.903 156.79 237.128L159.999 235.634C160.361 235.459 160.792 235.494 161.143 235.716C164.678 238.074 169.299 238.156 172.917 235.926L174.329 235.062L150.138 212.409C149.707 212.012 149.648 211.346 149.987 210.868C150.337 210.389 150.979 210.249 151.492 210.529C154.853 212.386 169.825 218.376 178.577 219.053C180.735 219.228 182.836 218.282 184.225 216.543L156.416 200.546C154.864 199.74 153.464 198.969 152.204 198.28C146.217 194.999 143.475 193.505 138.037 194.252L67.6124 203.838C67.1223 203.908 66.6555 203.663 66.4221 203.22C66.1888 202.788 66.2588 202.25 66.5972 201.888L84.568 182.178C83.4478 180.73 80.4254 177.274 74.8941 173.865C68.2893 169.778 56.6666 164.92 38.6957 164.815L38.684 164.804Z" fill="#2C5680"/>
<path d="M160.489 237.841C160.209 237.841 159.941 237.747 159.719 237.549L141.468 221.435C140.989 221.003 140.943 220.267 141.363 219.789C141.795 219.31 142.53 219.263 143.008 219.684L161.259 235.797C161.749 236.229 161.784 236.965 161.364 237.444C161.131 237.7 160.816 237.841 160.489 237.841Z" fill="#2C5680"/>
<path d="M151.445 213.226C151.189 213.226 150.932 213.144 150.71 212.969L144.63 208.053C144.129 207.645 144.047 206.909 144.455 206.407C144.864 205.905 145.587 205.823 146.101 206.232L152.18 211.148C152.682 211.556 152.764 212.292 152.355 212.794C152.122 213.074 151.784 213.226 151.445 213.226Z" fill="#2C5680"/>
<path d="M86.0617 183.416C85.77 183.416 85.4782 183.311 85.2565 183.089C84.7897 182.645 84.7781 181.91 85.2215 181.442L104.289 161.475C104.733 161.008 105.468 160.997 105.935 161.44C106.401 161.884 106.413 162.62 105.97 163.087L86.9019 183.054C86.6685 183.299 86.3651 183.416 86.0617 183.416Z" fill="white"/>
<path d="M236.935 248.431L99.0497 248.431V245.897C99.0497 241.285 102.796 237.549 107.393 237.549L236.935 237.549V248.431Z" fill="#2C5680"/>
<path d="M183.431 248.443H308.807L336.358 165.119C339.019 157.074 333.032 148.771 324.56 148.771H225.371C220.014 148.771 215.253 152.216 213.573 157.307L183.443 248.443H183.431Z" fill="#2C5680"/>
<path d="M276.43 203.922C278.297 199.412 276.157 194.241 271.65 192.373C267.142 190.505 261.975 192.647 260.108 197.157C258.241 201.667 260.381 206.838 264.888 208.706C269.396 210.574 274.563 208.432 276.43 203.922Z" fill="white"/>
<path d="M268.267 210.552C262.759 210.552 258.267 206.068 258.267 200.545C258.267 195.022 262.748 190.539 268.267 190.539C273.787 190.539 278.268 195.022 278.268 200.545C278.268 206.068 273.787 210.552 268.267 210.552ZM268.267 192.874C264.043 192.874 260.601 196.318 260.601 200.545C260.601 204.772 264.043 208.217 268.267 208.217C272.492 208.217 275.934 204.772 275.934 200.545C275.934 196.318 272.492 192.874 268.267 192.874Z" fill="#2C5680"/>
<path d="M39.5359 208.123C38.9641 208.123 38.474 207.715 38.3806 207.131C38.2872 206.489 38.719 205.893 39.3608 205.8L67.274 201.503C67.9158 201.398 68.5109 201.841 68.6043 202.484C68.6976 203.126 68.2659 203.721 67.6241 203.815L39.7109 208.112C39.6526 208.112 39.5942 208.123 39.5359 208.123Z" fill="#2C5680"/>
<path d="M104.103 118.868L144.98 126.376L144.257 129.423C140.954 143.237 125.282 147.534 116.612 137.001L104.114 118.868H104.103Z" fill="white"/>
<path d="M145.237 127.03C145.132 127.03 145.027 127.018 144.922 126.983L134.571 124.134C133.953 123.959 133.591 123.316 133.754 122.698C133.929 122.079 134.56 121.705 135.19 121.88L145.54 124.729C146.159 124.904 146.521 125.547 146.357 126.165C146.217 126.679 145.751 127.03 145.237 127.03Z" fill="#2C5680"/>
<path d="M130.23 132.202C130.044 132.202 129.845 132.156 129.67 132.062C129.11 131.747 128.9 131.035 129.215 130.474L134.653 120.642C134.968 120.082 135.668 119.872 136.24 120.187C136.8 120.502 137.01 121.215 136.695 121.775L131.257 131.607C131.047 131.992 130.65 132.214 130.23 132.214V132.202Z" fill="#2C5680"/>
<path d="M319.216 15.2845H268.116C267.474 15.2845 266.949 14.7591 266.949 14.1169C266.949 13.4747 267.474 12.9492 268.116 12.9492H319.216C319.858 12.9492 320.383 13.4747 320.383 14.1169C320.383 14.7591 319.858 15.2845 319.216 15.2845Z" fill="#2C5680"/>
<path d="M315.213 24.9994H268.116C267.474 24.9994 266.949 24.4739 266.949 23.8317C266.949 23.1895 267.474 22.6641 268.116 22.6641H315.213C315.855 22.6641 316.38 23.1895 316.38 23.8317C316.38 24.4739 315.855 24.9994 315.213 24.9994Z" fill="#2C5680"/>
<path d="M260.577 1.16748H228.23V33.535H260.577V1.16748Z" fill="white"/>
<path d="M260.577 34.7028H228.23C227.588 34.7028 227.063 34.1774 227.063 33.5352V1.16766C227.063 0.525447 227.588 0 228.23 0H260.577C261.219 0 261.744 0.525447 261.744 1.16766V33.5352C261.744 34.1774 261.219 34.7028 260.577 34.7028ZM229.397 32.3675H259.41V2.33532H229.397V32.3675Z" fill="#2C5680"/>
<path d="M240.938 24.0654C240.634 24.0654 240.343 23.9486 240.109 23.7268L234.823 18.4373C234.368 17.9819 234.368 17.2463 234.823 16.7909C235.278 16.3355 236.013 16.3355 236.468 16.7909L240.938 21.263L252.805 9.38793C253.261 8.93254 253.996 8.93254 254.451 9.38793C254.906 9.84331 254.906 10.5789 254.451 11.0343L241.755 23.7385C241.521 23.972 241.229 24.0771 240.926 24.0771L240.938 24.0654Z" fill="#2C5680"/>
<path d="M319.216 62.6566H268.116C267.474 62.6566 266.949 62.1312 266.949 61.4889C266.949 60.8467 267.474 60.3213 268.116 60.3213H319.216C319.858 60.3213 320.383 60.8467 320.383 61.4889C320.383 62.1312 319.858 62.6566 319.216 62.6566Z" fill="#2C5680"/>
<path d="M315.213 72.3715H268.116C267.474 72.3715 266.949 71.846 266.949 71.2038C266.949 70.5616 267.474 70.0361 268.116 70.0361H315.213C315.855 70.0361 316.38 70.5616 316.38 71.2038C316.38 71.846 315.855 72.3715 315.213 72.3715Z" fill="#2C5680"/>
<path d="M260.577 48.5396H228.23V80.9071H260.577V48.5396Z" fill="white"/>
<path d="M260.577 82.0749H228.23C227.588 82.0749 227.063 81.5495 227.063 80.9072V48.5397C227.063 47.8975 227.588 47.3721 228.23 47.3721H260.577C261.219 47.3721 261.744 47.8975 261.744 48.5397V80.9072C261.744 81.5495 261.219 82.0749 260.577 82.0749ZM229.397 79.7396H259.41V49.7074H229.397V79.7396Z" fill="#2C5680"/>
<path d="M240.938 71.4375C240.623 71.4375 240.331 71.309 240.109 71.0988L234.823 65.8094C234.368 65.354 234.368 64.6183 234.823 64.163C235.278 63.7076 236.013 63.7076 236.468 64.163L240.938 68.6351L252.805 56.76C253.261 56.3046 253.996 56.3046 254.451 56.76C254.906 57.2154 254.906 57.951 254.451 58.4064L241.755 71.1105C241.533 71.3324 241.241 71.4491 240.926 71.4491L240.938 71.4375Z" fill="#2C5680"/>
<path d="M319.216 110.028H268.116C267.474 110.028 266.949 109.503 266.949 108.861C266.949 108.218 267.474 107.693 268.116 107.693H319.216C319.858 107.693 320.383 108.218 320.383 108.861C320.383 109.503 319.858 110.028 319.216 110.028Z" fill="#2C5680"/>
<path d="M315.213 119.743H268.116C267.474 119.743 266.949 119.218 266.949 118.575C266.949 117.933 267.474 117.408 268.116 117.408H315.213C315.855 117.408 316.38 117.933 316.38 118.575C316.38 119.218 315.855 119.743 315.213 119.743Z" fill="#2C5680"/>
<path d="M260.577 95.9111H228.23V128.279H260.577V95.9111Z" fill="white"/>
<path d="M260.577 129.446H228.23C227.588 129.446 227.063 128.921 227.063 128.279V95.9113C227.063 95.2691 227.588 94.7437 228.23 94.7437H260.577C261.219 94.7437 261.744 95.2691 261.744 95.9113V128.279C261.744 128.921 261.219 129.446 260.577 129.446ZM229.397 127.111H259.41V97.079H229.397V127.111Z" fill="#2C5680"/>
<path d="M240.938 118.809C240.623 118.809 240.331 118.681 240.109 118.47L234.823 113.181C234.368 112.726 234.368 111.99 234.823 111.535C235.278 111.079 236.013 111.079 236.468 111.535L240.938 116.007L252.805 104.132C253.261 103.676 253.996 103.676 254.451 104.132C254.906 104.587 254.906 105.323 254.451 105.778L241.755 118.482C241.533 118.704 241.241 118.821 240.926 118.821L240.938 118.809Z" fill="#2C5680"/>
</g>
<defs>
<clipPath id="clip0_299_393">
<rect width="337" height="251" fill="white"/>
</clipPath>
</defs>
</svg>
