<svg width="261" height="270" viewBox="0 0 261 270" fill="none" xmlns="http://www.w3.org/2000/svg">
<g clip-path="url(#clip0_299_327)">
<path d="M248.487 270H12.5132C5.61146 270 0 264.375 0 257.457V71.6454C0 64.7273 5.61146 59.1025 12.5132 59.1025H248.487C255.389 59.1025 261 64.7273 261 71.6454V257.445C261 264.363 255.389 269.988 248.487 269.988V270ZM12.5132 61.5428C6.95042 61.5428 2.43447 66.0816 2.43447 71.6454V257.445C2.43447 263.021 6.95042 267.548 12.5132 267.548H248.487C254.05 267.548 258.566 263.021 258.566 257.445V71.6454C258.566 66.0694 254.037 61.5428 248.487 61.5428H12.5132Z" fill="#2C5680"/>
<path d="M12.3793 74.2077C9.96918 74.2077 7.99725 72.2433 7.99725 69.8275C7.99725 67.4117 9.95701 65.4473 12.3793 65.4473C14.8016 65.4473 16.7492 67.4117 16.7492 69.8275C16.7492 72.2433 14.7894 74.2077 12.3793 74.2077ZM12.3793 67.8753C11.3081 67.8753 10.4317 68.7538 10.4317 69.8153C10.4317 70.8768 11.3081 71.7553 12.3793 71.7553C13.4505 71.7553 14.3147 70.8768 14.3147 69.8153C14.3147 68.7538 13.4383 67.8753 12.3793 67.8753Z" fill="#2C5680"/>
<path d="M23.018 74.2077C20.6078 74.2077 18.6481 72.2433 18.6481 69.8275C18.6481 67.4117 20.6078 65.4473 23.018 65.4473C25.4281 65.4473 27.3878 67.4117 27.3878 69.8275C27.3878 72.2433 25.4281 74.2077 23.018 74.2077ZM23.018 67.8753C21.9468 67.8753 21.0825 68.7538 21.0825 69.8153C21.0825 70.8768 21.959 71.7553 23.018 71.7553C24.077 71.7553 24.9534 70.8768 24.9534 69.8153C24.9534 68.7538 24.077 67.8753 23.018 67.8753Z" fill="#2C5680"/>
<path d="M33.6444 74.2077C31.2343 74.2077 29.2745 72.2433 29.2745 69.8275C29.2745 67.4117 31.2343 65.4473 33.6444 65.4473C36.0545 65.4473 38.0143 67.4117 38.0143 69.8275C38.0143 72.2433 36.0545 74.2077 33.6444 74.2077ZM33.6444 67.8753C32.5732 67.8753 31.709 68.7538 31.709 69.8153C31.709 70.8768 32.5854 71.7553 33.6444 71.7553C34.7034 71.7553 35.5798 70.8768 35.5798 69.8153C35.5798 68.7538 34.7034 67.8753 33.6444 67.8753Z" fill="#2C5680"/>
<path d="M36.225 268.902L81.2871 204.138C93.7273 186.605 115.832 178.833 136.477 184.738L213.516 206.798C224.739 210.019 234.513 217.023 241.183 226.637L251.518 268.902V267.682L36.2493 268.902H36.225Z" fill="#2C5680"/>
<path d="M70.4172 182.542V132.871C70.4172 127.32 67.4228 122.183 62.5904 119.462C60.9106 118.51 58.9143 118.535 57.2467 119.511C55.5791 120.487 54.5809 122.232 54.5809 124.159V159.945C52.9742 158.994 51.0996 158.433 49.1034 158.433H48.6895C45.123 158.433 41.8608 160.165 39.828 163.081C39.1829 162.959 38.5134 162.886 37.8318 162.886H37.4179C33.7053 162.886 30.2849 164.765 28.2764 167.901C28.2521 167.937 28.2521 167.962 28.2399 167.998C27.3513 167.791 26.4384 167.681 25.5011 167.681C18.7455 167.681 13.2557 173.184 13.2557 179.955V267.67C13.2557 268.024 13.5357 267.67 13.8887 267.67H66.6316C66.9846 267.67 67.2646 268.024 67.2646 267.67V223.099L67.9219 222.44C73.9594 216.388 77.2702 208.36 77.2702 199.807V193.731C77.2702 188.85 74.4828 184.628 70.4415 182.53L70.4172 182.542Z" fill="white"/>
<path d="M52.0247 238.704C51.7082 238.704 51.4039 238.582 51.1605 238.35C50.6858 237.874 50.6858 237.106 51.1605 236.63L66.5829 221.171C72.2674 215.473 75.3957 207.896 75.3957 199.843V193.767C75.3957 187.837 70.5876 183.018 64.6718 183.018H42.2503C40.96 183.018 39.7428 183.579 38.9151 184.58C38.0873 185.568 37.7344 186.873 37.9535 188.142C38.5499 191.632 41.3009 194.353 44.7943 194.902L58.1474 197.025C58.7317 197.122 59.1577 197.61 59.1699 198.208C59.1821 198.794 58.7682 199.319 58.1961 199.428C58.1596 199.428 54.3253 200.234 50.5762 202.662C45.6951 205.834 43.2241 210.178 43.2241 215.583C43.2241 216.254 42.6763 216.803 42.0069 216.803C41.3374 216.803 40.7896 216.254 40.7896 215.583C40.7896 209.36 43.7353 204.175 49.3225 200.575C50.5519 199.782 51.7691 199.16 52.889 198.66L44.417 197.305C39.901 196.586 36.3345 193.059 35.5677 188.545C35.2268 186.556 35.7746 184.543 37.0649 182.993C38.3551 181.456 40.254 180.565 42.2625 180.565H64.684C71.9387 180.565 77.8423 186.483 77.8423 193.755V199.831C77.8423 208.543 74.4584 216.73 68.3113 222.879L52.889 238.338C52.6455 238.582 52.3412 238.692 52.0247 238.692V238.704Z" fill="#2C5680"/>
<path d="M69.7842 183.908C69.1147 183.908 68.567 183.359 68.567 182.688V132.871C68.567 127.99 65.9256 123.464 61.6896 121.072C60.5819 120.45 59.2673 120.462 58.1839 121.097C57.0884 121.743 56.4311 122.878 56.4311 124.147V159.97C56.4311 160.641 55.8834 161.19 55.2139 161.19C54.5444 161.19 53.9966 160.641 53.9966 159.97V124.147C53.9966 122 55.1043 120.072 56.9545 118.986C58.8047 117.9 61.0201 117.888 62.8946 118.937C67.9097 121.768 71.0136 127.1 71.0136 132.859V182.676C71.0136 183.347 70.4659 183.896 69.7964 183.896L69.7842 183.908Z" fill="#2C5680"/>
<path d="M59.3038 182.53C58.6343 182.53 58.0866 181.981 58.0866 181.31V169.304C58.0866 164.338 54.0454 160.287 49.0912 160.287H48.6773C45.5977 160.287 42.7616 161.849 41.0939 164.448C40.7288 165.021 39.9741 165.18 39.4142 164.814C38.8542 164.448 38.6838 163.691 39.049 163.13C41.167 159.811 44.77 157.834 48.6773 157.834H49.0912C55.3965 157.834 60.521 162.971 60.521 169.291V181.297C60.521 181.968 59.9733 182.517 59.3038 182.517V182.53Z" fill="#2C5680"/>
<path d="M48.0322 182.871C47.3627 182.871 46.815 182.322 46.815 181.651V173.757C46.815 168.791 42.7859 164.741 37.8196 164.741H37.4057C34.3261 164.741 31.49 166.302 29.8223 168.901C29.4572 169.462 28.7025 169.633 28.1426 169.267C27.5826 168.901 27.4122 168.145 27.7774 167.583C29.8954 164.277 33.4984 162.3 37.4057 162.3H37.8196C44.1249 162.3 49.2494 167.437 49.2494 173.757V181.651C49.2494 182.322 48.7017 182.871 48.0322 182.871Z" fill="#2C5680"/>
<path d="M66.6073 268.902C65.9378 268.902 65.39 268.353 65.39 267.682V224.795C65.39 224.124 65.9378 223.575 66.6073 223.575C67.2767 223.575 67.8245 224.124 67.8245 224.795V267.682C67.8245 268.353 67.2767 268.902 66.6073 268.902Z" fill="#2C5680"/>
<path d="M13.8643 268.902C13.1949 268.902 12.6471 268.353 12.6471 267.682V179.967C12.6471 172.879 18.4046 167.107 25.4768 167.107C32.5489 167.107 38.3064 172.879 38.3064 179.967V196.732C38.3064 199.111 36.3832 201.039 34.0096 201.039C29.0068 201.039 24.9412 196.964 24.9412 191.949V184.067C24.9412 183.396 25.4889 182.847 26.1584 182.847C26.8279 182.847 27.3757 183.396 27.3757 184.067V191.949C27.3757 195.622 30.3579 198.599 34.0096 198.599C35.0321 198.599 35.872 197.757 35.872 196.732V179.967C35.872 174.221 31.21 169.548 25.4768 169.548C19.7436 169.548 15.0816 174.221 15.0816 179.967V267.682C15.0816 268.353 14.5338 268.902 13.8643 268.902Z" fill="#2C5680"/>
<path d="M28.8972 185.275H23.091C22.4215 185.275 21.8738 184.726 21.8738 184.055C21.8738 183.384 22.4215 182.835 23.091 182.835H28.8972C29.5667 182.835 30.1145 183.384 30.1145 184.055C30.1145 184.726 29.5667 185.275 28.8972 185.275Z" fill="#2C5680"/>
<path d="M175.769 159.689C195.117 159.689 210.801 143.967 210.801 124.574C210.801 105.181 195.117 89.459 175.769 89.459C156.421 89.459 140.737 105.181 140.737 124.574C140.737 143.967 156.421 159.689 175.769 159.689Z" fill="#2C5680"/>
<path d="M172.457 120.622C177.689 110.271 173.559 97.6281 163.233 92.3836C152.906 87.139 140.293 91.2786 135.061 101.63C129.829 111.98 133.959 124.623 144.285 129.868C154.612 135.112 167.225 130.973 172.457 120.622Z" fill="#2C5680"/>
<path d="M142.015 180.236C125.315 172.854 119.423 149.477 128.857 128.027C138.29 106.565 159.482 95.1569 176.183 102.539C190.132 108.7 196.535 126.014 192.774 144.047C196.073 140.289 201.258 138.398 206.48 139.569C213.747 141.204 218.591 148.501 217.277 155.858C215.853 163.813 208.148 168.925 200.345 167.205C198.677 166.839 197.144 166.168 195.78 165.302L193.346 203.552C197.789 204.736 136.379 226.6 145.107 194.157L149.477 182.273C146.933 181.968 144.425 181.31 142.015 180.236Z" fill="white"/>
<path d="M161.308 213.069C155.806 213.069 150.804 212.093 147.42 209.494C143.196 206.237 142.027 200.966 143.95 193.828L147.833 183.25C145.642 182.859 143.537 182.225 141.54 181.346C124.256 173.708 118.06 149.562 127.749 127.527C137.438 105.491 159.385 93.7784 176.682 101.416C189.95 107.273 197.022 123.159 194.588 140.802C198.081 138.337 202.5 137.422 206.76 138.386C214.648 140.167 219.906 148.098 218.494 156.078C217.752 160.238 215.414 163.825 211.909 166.168C208.403 168.511 204.216 169.304 200.102 168.401C198.994 168.157 197.923 167.791 196.9 167.303L194.624 203.052C194.721 203.211 194.782 203.394 194.807 203.577C194.953 204.663 193.845 205.309 193.261 205.651C189.39 207.896 174.041 213.094 161.32 213.094L161.308 213.069ZM142.502 179.113C144.73 180.102 147.127 180.748 149.623 181.053C149.988 181.102 150.317 181.31 150.511 181.627C150.706 181.944 150.743 182.335 150.621 182.688L146.263 194.572C144.462 201.295 145.703 205.834 150.098 208.347C161.04 214.607 188.014 206.054 192.141 203.467L194.575 165.204C194.6 164.777 194.855 164.387 195.245 164.191C195.634 163.996 196.085 164.021 196.45 164.252C197.752 165.082 199.152 165.668 200.613 165.997C204.082 166.754 207.6 166.095 210.546 164.118C213.491 162.142 215.463 159.128 216.084 155.626C217.277 148.916 212.846 142.241 206.212 140.741C201.611 139.704 196.815 141.265 193.687 144.828C193.322 145.243 192.725 145.365 192.226 145.109C191.727 144.865 191.471 144.316 191.581 143.767C195.294 125.904 188.757 109.396 175.684 103.625C159.616 96.5358 139.106 107.688 129.964 128.491C120.823 149.294 126.447 172 142.502 179.089V179.113Z" fill="#2C5680"/>
<path d="M196.608 157.566C196.608 157.566 196.511 157.566 196.45 157.566C195.78 157.481 195.306 156.871 195.391 156.199C195.914 152.027 197.509 148.928 200.114 146.975C203.863 144.169 208.318 144.865 208.501 144.901C209.158 145.011 209.608 145.633 209.499 146.304C209.389 146.963 208.768 147.427 208.099 147.305C208.014 147.305 204.423 146.78 201.538 148.952C199.493 150.489 198.239 153.027 197.801 156.504C197.728 157.127 197.205 157.578 196.596 157.578L196.608 157.566Z" fill="#2C5680"/>
<path d="M152.788 183.701C151.923 183.701 151.047 183.664 150.183 183.591C149.513 183.53 149.014 182.932 149.075 182.261C149.136 181.59 149.72 181.102 150.39 181.151C159.921 181.993 170.036 177.686 178.167 169.303C178.642 168.815 179.409 168.803 179.883 169.279C180.37 169.743 180.37 170.524 179.908 170.999C171.996 179.162 162.233 183.701 152.775 183.701H152.788Z" fill="#2C5680"/>
<path d="M138.668 123.622C139.021 124.745 136.793 126.465 133.677 127.453C130.561 128.442 127.749 128.332 127.396 127.209C127.043 126.087 129.271 124.367 132.387 123.378C135.503 122.39 138.315 122.5 138.668 123.622Z" fill="#2C5680"/>
<path d="M165.849 134.433C165.24 135.763 161.759 135.482 158.083 133.81C154.394 132.127 151.899 129.686 152.508 128.356C153.116 127.026 156.598 127.307 160.274 128.979C163.962 130.662 166.457 133.103 165.849 134.433Z" fill="#2C5680"/>
<path d="M140.068 145.267C139.69 145.267 139.313 145.084 139.069 144.755C137.84 143.022 137.609 140.753 138.473 138.813L142.38 130.052C142.648 129.442 143.378 129.162 143.987 129.43C144.596 129.711 144.876 130.431 144.608 131.041L140.7 139.801C140.177 140.972 140.311 142.29 141.053 143.327C141.443 143.876 141.321 144.633 140.774 145.035C140.554 145.194 140.311 145.267 140.068 145.267Z" fill="#2C5680"/>
<path d="M145.022 161.043C144.048 161.043 143.013 160.97 141.93 160.799C141.26 160.689 140.81 160.067 140.92 159.408C141.029 158.749 141.65 158.286 142.307 158.395C150.548 159.701 155.502 154.674 155.709 154.454C156.172 153.979 156.951 153.954 157.425 154.418C157.912 154.882 157.924 155.65 157.462 156.138C157.243 156.358 152.678 161.043 144.997 161.043H145.022Z" fill="#2C5680"/>
<path d="M157.097 103.429C158.545 111.031 165.873 116.021 173.468 114.557C181.064 113.093 186.03 105.76 184.57 98.1462C183.121 90.5448 175.793 85.5545 168.198 87.0187C160.602 88.4828 155.636 95.8157 157.097 103.429Z" fill="#2C5680"/>
<path d="M175.258 116.021C176.706 123.622 184.034 128.613 191.63 127.149C199.213 125.697 204.192 118.352 202.731 110.738C201.282 103.137 193.955 98.1463 186.359 99.6105C178.776 101.062 173.797 108.408 175.258 116.021Z" fill="#2C5680"/>
<path d="M180.906 144.12C181.587 147.695 185.032 150.038 188.599 149.354C192.165 148.671 194.502 145.218 193.821 141.643C193.139 138.068 199.651 114.813 189.512 116.753C177.51 119.059 180.236 140.545 180.918 144.12H180.906Z" fill="#2C5680"/>
<path d="M206.151 108.127C205.762 108.127 205.372 107.944 205.141 107.59C204.764 107.029 204.91 106.272 205.47 105.894C207.539 104.491 210.631 105.04 210.972 105.101C211.629 105.235 212.067 105.87 211.933 106.528C211.811 107.187 211.166 107.627 210.509 107.492C209.84 107.37 207.892 107.199 206.833 107.907C206.626 108.054 206.383 108.115 206.151 108.115V108.127Z" fill="#2C5680"/>
<path d="M204.983 106.54C204.557 106.54 204.131 106.309 203.912 105.906C203.595 105.32 203.802 104.576 204.386 104.259C204.471 104.21 206.103 103.246 206.115 101.343C206.115 100.672 206.663 100.123 207.332 100.123C208.001 100.123 208.549 100.672 208.549 101.343C208.549 104.735 205.689 106.333 205.567 106.394C205.384 106.492 205.177 106.54 204.983 106.54Z" fill="#2C5680"/>
<path d="M153.238 141.948C153.092 144.364 154.224 146.39 155.77 146.487C157.316 146.585 158.691 144.706 158.837 142.29C158.983 139.874 157.851 137.849 156.305 137.751C154.76 137.654 153.384 139.533 153.238 141.948Z" fill="#2C5680"/>
<path d="M129.794 138.532C129.648 140.948 130.78 142.973 132.326 143.071C133.872 143.168 135.247 141.289 135.393 138.874C135.539 136.458 134.407 134.432 132.861 134.335C131.316 134.237 129.94 136.116 129.794 138.532Z" fill="#2C5680"/>
<path d="M56.9302 19.8511C56.9302 19.8511 56.8085 19.8511 56.7476 19.8389L41.24 17.2401C40.6314 17.1425 40.2297 16.569 40.3271 15.959C40.4245 15.3489 40.9844 14.9463 41.6052 15.0439L57.1128 17.6427C57.7214 17.7403 58.1231 18.3138 58.0257 18.9238C57.9405 19.4607 57.4658 19.8511 56.9302 19.8511Z" fill="#2C5680"/>
<path d="M63.3085 10.2733C63.0894 10.2733 62.8825 10.2123 62.6877 10.0781L55.0434 4.85598C54.5444 4.51435 54.4105 3.81888 54.7513 3.31863C55.0921 2.81839 55.786 2.68417 56.285 3.02581L63.9293 8.24791C64.4405 8.58955 64.5622 9.28501 64.2214 9.78526C64.0023 10.1025 63.6615 10.2733 63.3085 10.2733Z" fill="#2C5680"/>
<path d="M44.8917 34.5539C44.344 34.5539 43.8814 34.1513 43.7962 33.6022C43.711 32.9922 44.1249 32.4309 44.7335 32.3455L53.2907 31.1132C53.8993 31.0278 54.4592 31.4426 54.5444 32.0527C54.6296 32.6627 54.2158 33.224 53.6071 33.3094L45.05 34.5417C45.05 34.5417 44.9404 34.5417 44.8917 34.5417V34.5539Z" fill="#2C5680"/>
<path d="M124.097 0.500249L158.436 31.5157L158.338 32.1013C152.812 44.6929 148.819 58.5169 143.171 70.9865C136.732 85.2009 125.181 94.0955 110.975 98.488C101.749 101.343 92.3274 103.576 83.0399 106.236L82.4921 105.784C77.6232 97.158 71.7683 88.9588 66.8993 80.3692C59.7055 67.6922 57.977 53.3192 62.6633 38.9706L77.9762 0L124.097 0.500249Z" fill="#FF882E"/>
<path d="M128.199 40.5203C128.443 40.5447 128.479 40.7644 128.589 40.923C128.966 41.472 131.389 47.0114 131.547 47.6824C131.608 47.9631 131.766 48.1583 131.425 48.3535L93.3864 64.9959L82.5286 40.4959L90.2216 37.1162L97.7441 53.7952L128.187 40.5081L128.199 40.5203Z" fill="#2C5680"/>
</g>
<defs>
<clipPath id="clip0_299_327">
<rect width="261" height="270" fill="white"/>
</clipPath>
</defs>
</svg>
