<svg width="311" height="251" viewBox="0 0 311 251" fill="none" xmlns="http://www.w3.org/2000/svg">
<g clip-path="url(#clip0_299_466)">
<path d="M78.4318 54.7882L56.541 46.8672L42.9274 84.5L64.8181 92.421L78.4318 54.7882Z" fill="white"/>
<path d="M64.8176 93.4945C64.6889 93.4945 64.5709 93.473 64.4529 93.4301L42.5573 85.5119C41.9995 85.308 41.7098 84.6965 41.9137 84.1386L55.5273 46.5111C55.6238 46.2429 55.8277 46.0283 56.0851 45.8995C56.3426 45.7815 56.643 45.7708 56.9005 45.8566L78.796 53.7748C79.3538 53.9786 79.6435 54.5902 79.4396 55.1481L65.826 92.7756C65.7295 93.0438 65.5256 93.2584 65.2682 93.3872C65.1287 93.4515 64.9678 93.4837 64.8176 93.4837V93.4945ZM44.306 83.8596L64.1847 91.0482L77.0688 55.4378L57.1901 48.2492L44.306 83.8596Z" fill="#2C5680"/>
<path d="M187.372 88.9452L202.338 82.5184C204.644 81.5313 207.337 82.1965 208.914 84.1493L211.489 87.3359L182.148 98.9342L187.372 88.9345V88.9452Z" fill="white"/>
<path d="M182.137 100.018C181.837 100.018 181.547 99.889 181.343 99.6637C181.043 99.3311 180.979 98.8483 181.193 98.4513L186.428 88.4517C186.546 88.2371 186.729 88.0654 186.954 87.9581L201.919 81.5313C204.655 80.3511 207.884 81.1558 209.751 83.484L212.325 86.6706C212.54 86.9388 212.615 87.2929 212.529 87.6148C212.443 87.9474 212.207 88.2156 211.886 88.3336L182.545 99.932C182.416 99.9856 182.287 100.007 182.148 100.007L182.137 100.018ZM188.145 89.7821L184.433 96.8849L209.74 86.8852L208.088 84.8359C206.822 83.2587 204.634 82.7115 202.767 83.5162L188.156 89.7928L188.145 89.7821Z" fill="#2C5680"/>
<path d="M201.716 20.729L151.499 142.506L156.712 145.049L208.699 22.8105L201.716 20.729Z" fill="#FF882E"/>
<path d="M168.009 17.478L133.422 105.833L146.993 138.45L152.882 141.701L203.346 21.9629L168.009 17.478Z" fill="white"/>
<path d="M152.882 142.774C152.7 142.774 152.528 142.731 152.368 142.646L146.478 139.395C146.263 139.277 146.102 139.094 146.006 138.869L132.424 106.252C132.317 105.994 132.317 105.705 132.424 105.447L167.011 17.0812C167.193 16.6198 167.665 16.3516 168.148 16.4052L203.475 20.89C203.807 20.933 204.097 21.1261 204.269 21.4158C204.44 21.7055 204.462 22.0595 204.333 22.3707L153.88 142.109C153.762 142.388 153.526 142.603 153.247 142.71C153.129 142.753 153.011 142.764 152.893 142.764L152.882 142.774ZM147.84 137.689L152.357 140.189L201.801 22.8535L168.706 18.6476L134.581 105.823L147.851 137.699L147.84 137.689Z" fill="#2C5680"/>
<path d="M168.009 17.478L131.062 103.752L148.302 137.678L196.877 20.8363L168.009 17.478Z" fill="white"/>
<path d="M148.302 138.751C147.894 138.751 147.529 138.525 147.347 138.16L130.096 104.235C129.957 103.956 129.946 103.623 130.064 103.323L167.022 17.0487C167.204 16.6088 167.655 16.3513 168.137 16.405L197.006 19.774C197.339 19.8169 197.639 20.01 197.811 20.2997C197.982 20.5894 198.004 20.9434 197.875 21.2546L149.299 138.085C149.138 138.472 148.763 138.729 148.345 138.751C148.334 138.751 148.312 138.751 148.302 138.751ZM132.242 103.709L148.205 135.113L195.343 21.7374L168.674 18.6259L132.231 103.698L132.242 103.709Z" fill="#2C5680"/>
<path d="M168.009 17.4781L131.373 103.784L105.422 90.7481L137.509 4.98926L168.009 17.4781Z" fill="white"/>
<path d="M131.373 104.857C131.212 104.857 131.041 104.814 130.89 104.739L104.94 91.703C104.446 91.4562 104.221 90.8768 104.414 90.3725L136.501 4.61366C136.598 4.34543 136.812 4.12011 137.08 4.00209C137.348 3.88407 137.649 3.88407 137.917 4.00209L168.427 16.4909C168.695 16.5982 168.899 16.8128 169.017 17.0703C169.124 17.3385 169.124 17.639 169.017 17.8965L132.382 104.203C132.263 104.471 132.038 104.685 131.759 104.793C131.641 104.836 131.513 104.857 131.395 104.857H131.373ZM106.763 90.2223L130.837 102.314L166.593 18.0574L138.121 6.40544L106.763 90.2223Z" fill="#2C5680"/>
<path d="M181.483 63.3025L181.536 63.7961C181.397 65.7166 180.732 67.5513 179.605 69.107L174.274 76.4458C173.137 78.0123 175.025 79.9865 176.634 78.9243L188.156 71.328L193.069 60.6953L198.465 69.8903L190.172 89.4175C187.48 95.7478 181.483 100.039 174.628 100.544L159.78 101.638L137.284 149.566L115.7 128L171.506 66.4033L176.73 61.5215C178.436 59.9228 181.236 60.9635 181.494 63.2811L181.483 63.3025Z" fill="white"/>
<path d="M137.273 150.649C136.994 150.649 136.716 150.542 136.512 150.338L114.927 128.772C114.52 128.365 114.509 127.721 114.895 127.292L170.701 65.6951L175.99 60.7596C177.074 59.7403 178.618 59.4292 180.013 59.9549C181.408 60.4699 182.384 61.7038 182.545 63.1844L182.598 63.678C182.598 63.7424 182.598 63.8067 182.598 63.8711C182.448 65.9848 181.708 68.0126 180.464 69.74L175.132 77.0788C174.842 77.4865 175.078 77.8084 175.186 77.9264C175.304 78.0444 175.615 78.3019 176.033 78.023L187.297 70.5983L192.082 60.2446C192.254 59.8798 192.608 59.6438 193.004 59.6223C193.412 59.5901 193.777 59.8047 193.981 60.1481L199.377 69.343C199.548 69.6327 199.57 69.9975 199.441 70.3087L191.149 89.8359C188.295 96.5631 181.987 101.08 174.703 101.617L160.478 102.668L138.25 150.027C138.099 150.338 137.81 150.563 137.466 150.628C137.402 150.628 137.338 150.639 137.284 150.639L137.273 150.649ZM117.169 127.978L136.952 147.742L158.804 101.198C158.965 100.844 159.308 100.608 159.695 100.587L174.542 99.4922C181.021 99.0094 186.632 94.9967 189.175 89.0097L197.263 69.976L193.176 63.0128L189.121 71.7786C189.035 71.961 188.906 72.1112 188.735 72.2292L177.213 79.8255C176.055 80.5873 174.585 80.4156 173.63 79.4178C172.675 78.42 172.579 76.9393 173.383 75.8235L178.715 68.4847C179.702 67.1221 180.303 65.502 180.442 63.8282L180.399 63.4312C180.324 62.7553 179.895 62.2081 179.251 61.972C178.608 61.736 177.932 61.8755 177.428 62.3368L172.203 67.2079L117.148 127.978H117.169Z" fill="#2C5680"/>
<path d="M188.949 85.5762C188.746 85.5762 188.542 85.5226 188.359 85.3938C187.866 85.0612 187.737 84.396 188.059 83.9025L197.564 69.6218C197.886 69.1283 198.551 68.9888 199.055 69.3214C199.548 69.654 199.677 70.3192 199.355 70.8128L189.851 85.0934C189.647 85.4046 189.303 85.5762 188.96 85.5762H188.949Z" fill="#2C5680"/>
<path d="M107.278 84.4284C111.988 81.2633 114.52 71.8323 114.52 71.8323C114.52 71.8323 116.933 72.8086 120.935 70.3624C125.001 67.8732 125.033 63.5171 125.033 63.5171L108.888 63.7424L94.7483 89.9218L86.4557 95.8336L107.278 84.4284Z" fill="white"/>
<path d="M86.4557 96.9067C86.1231 96.9067 85.7906 96.7457 85.576 96.4561C85.2327 95.9732 85.34 95.308 85.8228 94.9647L93.9116 89.1923L107.933 63.2276C108.115 62.8842 108.469 62.6696 108.866 62.6696L125.012 62.4443H125.022C125.301 62.4443 125.58 62.5516 125.773 62.7555C125.977 62.9593 126.095 63.2383 126.095 63.528C126.095 63.7318 126.009 68.5064 121.482 71.2852C118.65 73.0234 116.494 73.195 115.26 73.0878C114.455 75.652 111.977 82.5724 107.868 85.3298C107.375 85.6624 106.71 85.5337 106.377 85.0401C106.045 84.5466 106.173 83.8814 106.667 83.5488C110.99 80.6411 113.447 71.65 113.468 71.5642C113.543 71.2638 113.747 71.017 114.026 70.8775C114.305 70.738 114.627 70.7273 114.906 70.8453C114.97 70.8668 116.944 71.5427 120.356 69.4505C122.694 68.0128 123.51 65.8884 123.789 64.6116L109.51 64.8155L95.6709 90.4477C95.5958 90.5872 95.4885 90.7159 95.3491 90.8125L87.0565 96.7243C86.8634 96.853 86.6488 96.9281 86.4342 96.9281L86.4557 96.9067Z" fill="#2C5680"/>
<path d="M103.245 108.559C103.03 108.559 102.816 108.494 102.622 108.365C102.14 108.022 102.022 107.357 102.365 106.874L111.097 94.5033C111.441 94.0204 112.106 93.9024 112.589 94.2457C113.071 94.5891 113.189 95.2543 112.846 95.7371L104.114 108.108C103.899 108.408 103.577 108.559 103.234 108.559H103.245Z" fill="#2C5680"/>
<path d="M79.8412 32.9749C83.6352 19.0662 75.4372 4.71495 61.5304 0.920404C47.6235 -2.87414 33.2741 5.32496 29.4801 19.2336C25.686 33.1423 33.8841 47.4936 47.7909 51.2881C61.6977 55.0827 76.0471 46.8835 79.8412 32.9749Z" fill="#2C5680"/>
<path d="M99.1844 38.3352C104.006 24.7485 96.9014 9.82532 83.3165 5.00335C69.7316 0.181375 54.8104 7.28658 49.9891 20.8733C45.1677 34.4599 52.272 49.3831 65.8569 54.2051C79.4418 59.0271 94.363 51.9219 99.1844 38.3352Z" fill="#2C5680"/>
<path d="M77.4763 27.4669C80.8985 34.6448 89.4915 37.7026 96.6684 34.28C103.845 30.8574 106.903 22.2632 103.481 15.0854C100.058 7.90751 91.4654 4.84968 84.2885 8.27231C77.1116 11.6949 74.0542 20.2891 77.4763 27.4669Z" fill="#2C5680"/>
<path d="M77.5837 10.6543C68.7118 10.8689 61.2667 18.5081 58.0698 29.291C55.8813 27.8425 53.1243 27.5099 50.7212 28.658C46.9236 30.4605 45.4431 35.2672 47.4063 39.3872C49.1442 43.0352 53.0063 44.9235 56.5035 44.0437C57.587 60.2556 67.4352 72.8946 79.1071 72.605C91.2188 72.3045 100.691 58.1956 100.273 41.0932C99.8547 23.98 89.6955 10.3539 77.5837 10.6543Z" fill="white"/>
<path d="M78.7208 73.6888C67.0275 73.6888 57.0399 61.4145 55.5273 45.2992C51.8691 45.6318 48.168 43.486 46.4408 39.8487C45.3787 37.6171 45.1749 35.1171 45.8829 32.8318C46.6017 30.5143 48.1572 28.6903 50.2599 27.6818C52.5127 26.6089 55.1089 26.641 57.4368 27.714C61.0521 16.8667 68.8405 9.79613 77.5515 9.58154C77.691 9.58154 77.8304 9.58154 77.9699 9.58154C84.0311 9.58154 89.7705 12.811 94.1689 18.7121C98.5888 24.6347 101.131 32.5743 101.346 41.0719C101.775 58.7429 91.8195 73.3776 79.1285 73.6888C78.989 73.6888 78.8496 73.6888 78.7208 73.6888ZM57.4904 42.7027L57.5763 43.9795C58.6169 59.5262 67.875 71.5429 78.7208 71.5429C78.8388 71.5429 78.9569 71.5429 79.0856 71.5429C90.5858 71.264 99.6079 57.6164 99.211 41.1255C99.0179 33.0679 96.6149 25.5681 92.4632 19.9889C88.3866 14.5277 83.1622 11.5665 77.6159 11.7274C69.5271 11.9205 62.2536 18.9374 59.1103 29.5916L58.7027 30.9757L57.4904 30.1817C55.5273 28.8835 53.1671 28.6796 51.1932 29.613C49.6269 30.3534 48.4791 31.7267 47.9427 33.4541C47.3956 35.2244 47.5565 37.1664 48.3825 38.9153C49.8737 42.0482 53.1779 43.7649 56.246 42.9924L57.4904 42.6813V42.7027Z" fill="#2C5680"/>
<path d="M56.9433 37.1128C56.6215 37.1128 56.3103 36.9733 56.0958 36.6943C56.0636 36.6514 54.0575 34.13 51.3004 34.3875C50.6997 34.4412 50.1848 34.012 50.1311 33.4219C50.0775 32.8318 50.5066 32.3061 51.0966 32.2524C55.0445 31.8662 57.6728 35.2459 57.7908 35.3854C58.1555 35.8574 58.0697 36.5334 57.5977 36.8874C57.4046 37.0377 57.1686 37.1128 56.9433 37.1128Z" fill="#2C5680"/>
<path d="M89.4487 47.874C89.2234 47.874 89.0089 47.8526 88.7836 47.8204C88.2043 47.7131 87.8073 47.1552 87.9146 46.5758C88.0219 45.9964 88.569 45.5994 89.1591 45.7067C89.6204 45.7925 90.0816 45.6745 90.4571 45.3848C90.8326 45.0951 91.0579 44.6767 91.0901 44.2046L91.4977 38.7649C91.5406 38.1748 92.0556 37.7349 92.6456 37.7778C93.2356 37.8207 93.6755 38.3357 93.6326 38.9258L93.2249 44.3656C93.1498 45.4385 92.6134 46.4256 91.7659 47.0801C91.1008 47.5951 90.2748 47.874 89.438 47.874H89.4487Z" fill="#2C5680"/>
<path d="M80.4802 41.5651C80.1691 41.5651 79.8473 41.4256 79.6434 41.1574C79.2787 40.696 79.3538 40.0201 79.8151 39.6445C81.9499 37.9493 83.7415 37.2948 85.1683 37.724C86.52 38.1317 86.9384 39.3012 86.9813 39.43C87.1636 39.9986 86.8525 40.5994 86.2947 40.7818C85.7368 40.9642 85.1468 40.6638 84.9537 40.1166C84.9323 40.063 84.825 39.8377 84.5353 39.7626C84.2135 39.6767 83.2373 39.6553 81.1668 41.3076C80.9737 41.4685 80.7377 41.5436 80.5017 41.5436L80.4802 41.5651Z" fill="#2C5680"/>
<path d="M98.7175 41.7477C98.3205 41.7477 97.9343 41.5224 97.752 41.1362C97.5696 40.7392 97.355 40.5139 97.119 40.4602C96.7114 40.3637 96.0999 40.6855 95.8746 40.8679C95.4026 41.2327 94.7374 41.1469 94.3727 40.6748C94.008 40.2135 94.0938 39.5375 94.5551 39.1727C94.7053 39.0547 96.0784 38.0032 97.6125 38.368C98.2347 38.5182 99.1037 38.9474 99.7044 40.2135C99.9619 40.7499 99.7366 41.3937 99.2002 41.6405C99.05 41.7156 98.8891 41.7477 98.7389 41.7477H98.7175Z" fill="#2C5680"/>
<path d="M84.1062 54.8911C84.0419 54.8911 83.9775 54.8911 83.9239 54.8804C82.1752 54.5693 80.8557 53.786 80.0296 52.5522C78.6458 50.5029 79.1607 47.9922 79.1821 47.8957C79.3109 47.3163 79.8687 46.9515 80.4588 47.0695C81.0381 47.1983 81.4028 47.7562 81.2848 48.3356C81.2848 48.3892 80.9522 50.0952 81.8212 51.3612C82.3147 52.0908 83.1515 52.5629 84.2993 52.7667C84.8786 52.874 85.2756 53.4212 85.1683 54.0113C85.0825 54.5371 84.6212 54.9019 84.117 54.9019L84.1062 54.8911Z" fill="#2C5680"/>
<path d="M58.2414 30.1278C58.2414 30.1278 69.6129 30.8252 77.7661 25.4606C88.0648 18.6797 86.1445 15.7292 89.0089 15.9974C94.4908 16.5017 83.5162 6.62004 75.4596 8.40109C67.403 10.1821 57.2437 17.8643 58.2307 30.1278H58.2414Z" fill="#2C5680"/>
<path d="M66.9739 33.1534C59.9793 33.1534 56.7181 29.044 56.525 28.7865C56.1709 28.3145 56.2568 27.6385 56.7288 27.2845C57.2008 26.9304 57.8659 27.0162 58.2307 27.4776C58.4667 27.778 64.0023 34.5803 76.9508 28.411C82.4112 25.8145 84.0955 21.5121 85.3077 18.3684C86.2411 15.9651 87.228 13.4759 89.91 14.3557C90.4678 14.5381 90.7789 15.1497 90.5966 15.7076C90.4142 16.2655 89.8134 16.5767 89.2449 16.3943C88.6441 16.2011 88.3759 16.4372 87.3138 19.1517C86.0372 22.4348 84.1062 27.3917 77.8733 30.353C73.5393 32.413 69.924 33.1426 66.9739 33.1426V33.1534Z" fill="#2C5680"/>
<path d="M87.5713 30.0742C87.9253 30.8253 86.5307 32.2415 84.4495 33.2286C82.3683 34.2157 80.3944 34.4088 80.0296 33.6578C79.6756 32.9067 81.0702 31.4905 83.1514 30.5034C85.2326 29.5163 87.2066 29.3232 87.5713 30.0742Z" fill="#2C5680"/>
<path d="M101.432 31.4583C101.367 32.2845 99.7796 32.8424 97.8915 32.6922C96.0034 32.542 94.523 31.748 94.5873 30.9219C94.6517 30.0957 96.2394 29.5378 98.1275 29.688C100.016 29.8382 101.496 30.6322 101.421 31.4583H101.432Z" fill="#2C5680"/>
<path d="M254.035 248.972L253.252 223.694L294.029 229.134L294.801 248.972H254.035Z" fill="white"/>
<path d="M254.368 224.928L292.988 230.078L293.685 247.899H255.076L254.368 224.917V224.928ZM252.147 222.46L253.005 250.045H295.927L295.069 228.189L252.147 222.46Z" fill="#2C5680"/>
<path d="M32.559 202.332L134.194 140.049L230.809 237.406L182.137 227.385L133.476 193.738L91.959 238.114L32.559 202.332Z" fill="#2C5680"/>
<path d="M63.8307 80.6841L120.592 119.299L140.631 145.07L136.329 151.519C132.199 157.72 124.196 160.038 117.384 157.023L66.1908 134.33L63.8307 80.6841Z" fill="#FF882E"/>
<path d="M6.79076 191.592L2.87509 200.884C-7.15543 224.681 10.3095 251 36.1314 251H253.005L252.147 222.46L67.3923 198.984L52.1266 180.852L6.80148 191.592H6.79076Z" fill="#2C5680"/>
<path d="M57.6085 186.935L62.6184 180.133L87.8181 141.111C94.1368 131.927 93.8901 119.728 87.2066 110.801L67.2958 84.2459C56.6216 70.0082 34.4149 73.2162 28.2142 89.9002L1.20154 192.837L27.6671 196.377C35.6164 199.135 51.6975 192.912 57.6085 186.935Z" fill="#FF882E"/>
<path d="M85.5867 144.587C85.4365 144.587 85.2756 144.555 85.1361 144.491L41.8493 124.212C41.3129 123.966 41.0769 123.322 41.3343 122.786C41.5811 122.249 42.2247 122.013 42.7611 122.27L86.048 142.549C86.5843 142.796 86.8204 143.439 86.5629 143.976C86.3805 144.362 85.9943 144.598 85.5867 144.598V144.587Z" fill="white"/>
<path d="M214.085 217.75C214.085 217.75 213.999 217.75 213.956 217.75L67.2636 200.057C66.6735 199.982 66.2552 199.457 66.3303 198.866C66.4053 198.276 66.931 197.858 67.521 197.933L214.214 215.626C214.804 215.701 215.222 216.226 215.147 216.817C215.082 217.364 214.621 217.761 214.085 217.761V217.75Z" fill="white"/>
<path d="M286.777 248.854H309.927V194.285C309.927 189.704 301.302 188.942 297.065 193.052L281.853 227.299C281.853 227.299 295.348 232.428 286.777 248.844V248.854Z" fill="white"/>
<path d="M287.388 248.854H303.92V194.285C303.92 189.704 298.985 188.942 295.96 193.052L281.842 226.913C281.842 226.913 293.514 232.439 287.388 248.844V248.854Z" fill="#FF882E"/>
<path d="M309.927 249.927H286.777C286.401 249.927 286.058 249.734 285.854 249.412C285.661 249.09 285.65 248.693 285.822 248.361C288.579 243.093 289.255 238.533 287.839 234.799C286.058 230.1 281.52 228.329 281.466 228.308C281.187 228.201 280.973 227.986 280.855 227.718C280.737 227.45 280.748 227.138 280.855 226.87L296.067 192.622C296.121 192.494 296.206 192.386 296.303 192.29C299.521 189.157 304.692 188.663 307.835 189.994C309.841 190.841 310.989 192.408 310.989 194.296V248.865C310.989 249.455 310.507 249.938 309.917 249.938L309.927 249.927ZM288.504 247.781H308.854V194.285C308.854 193.009 307.857 192.311 307.009 191.957C304.606 190.938 300.444 191.41 297.955 193.685L283.258 226.784C284.942 227.675 288.268 229.874 289.845 234.037C291.336 237.975 290.885 242.588 288.504 247.781Z" fill="#2C5680"/>
</g>
<defs>
<clipPath id="clip0_299_466">
<rect width="311" height="251" fill="white"/>
</clipPath>
</defs>
</svg>
