<svg width="505" height="415" viewBox="0 0 505 415" fill="none" xmlns="http://www.w3.org/2000/svg">
<g clip-path="url(#clip0_242_26705)">
<path d="M407.544 328.88C407.544 328.88 449.113 329.53 462.134 312.018C475.155 294.506 456.719 273.622 457.647 262.117C458.576 250.612 471.843 237.228 470.3 229.008C468.758 220.77 451.952 213.042 451.864 200.29C451.777 187.555 458.261 166.32 447.465 149.703C436.67 133.087 421.388 119.949 405.02 117.666C388.652 115.365 354.986 111.852 344.383 134.44C312.558 202.257 292.177 173.451 285.237 191.63C266.59 240.407 313.206 318.131 407.561 328.898L407.544 328.88Z" fill="#2C5680"/>
<path d="M419.829 338.927C419.829 338.927 419.776 338.927 419.741 338.927C338.67 334.8 283.694 261.906 283.677 238.616C283.677 232.591 287.532 231.73 289.197 231.643C302.306 230.958 318.727 196.25 330.731 170.904C335.533 160.769 339.669 152.022 343.157 146.155C352.848 129.838 374.001 122.426 404.266 124.762C420.004 125.974 436.635 136.916 449.901 154.78C459.102 167.163 458.436 182.602 457.91 195.003C457.735 199.007 457.577 202.801 457.788 205.91C458.243 212.55 464.009 217.661 469.074 222.175C473.122 225.758 476.942 229.166 477.924 233.1C479.133 237.896 476.224 243.973 473.14 250.419C470.371 256.198 467.514 262.17 467.426 267.404C467.356 270.952 469.617 275.835 472 280.999C476.942 291.696 483.094 305.028 474.734 317.867C462.467 336.697 421.651 338.84 419.916 338.91C419.881 338.91 419.864 338.91 419.829 338.91V338.927ZM393.821 127.871C375.718 127.871 355.652 131.981 346.153 147.965C342.754 153.691 338.653 162.368 333.886 172.415C320.83 200.009 304.567 234.348 289.373 235.156C288.654 235.191 287.164 235.278 287.164 238.616C287.164 248.715 300.886 272.27 323.038 292.715C342.771 310.947 375.578 333.131 419.829 335.415C421.879 335.309 460.767 332.92 471.79 315.953C479.08 304.747 473.63 292.926 468.811 282.492C466.147 276.713 463.834 271.725 463.921 267.369C464.027 261.38 467.058 255.056 469.985 248.944C472.789 243.077 475.435 237.544 474.542 233.996C473.805 231.098 470.388 228.059 466.76 224.845C461.187 219.892 454.861 214.271 454.3 206.191C454.072 202.872 454.23 198.99 454.405 194.88C454.914 183.024 455.544 168.287 447.097 156.887C434.444 139.832 418.742 129.399 404.003 128.275C400.744 128.029 397.326 127.871 393.839 127.871H393.821Z" fill="#2C5680"/>
<path d="M282.17 215.483C281.486 215.483 280.82 215.079 280.557 214.394C275.545 202.169 274.985 192.667 278.893 186.133C282.345 180.371 289.215 176.929 299.344 175.91C318.885 173.943 329.925 159.926 330.031 159.786C330.626 159.013 331.713 158.872 332.484 159.47C333.255 160.067 333.395 161.156 332.799 161.929C332.326 162.561 320.777 177.298 299.695 179.405C290.739 180.301 284.746 183.182 281.889 187.924C278.577 193.457 279.226 201.906 283.8 213.042C284.168 213.937 283.747 214.974 282.853 215.343C282.643 215.43 282.415 215.483 282.187 215.483H282.17Z" fill="#2C5680"/>
<path d="M465.954 414.403H190.304L275.177 280.824C289.022 259.026 310.823 246.186 333.991 246.186H368.989C415.325 246.186 458.068 272.884 480.886 316.076L499.918 352.101C514.621 379.941 495.834 414.403 465.989 414.403H465.954Z" fill="#FF882E"/>
<path d="M214.26 175.172L205.673 189.839C198.821 201.554 196.297 215.307 198.523 228.692L200.714 241.9L127.354 367.488H220.096L269.552 247.556L268.518 164.019C268.465 160.172 265.346 157.063 261.508 157.063C258.283 157.063 255.479 159.259 254.691 162.385L249.258 184.2L197.892 135.74C194.808 132.841 189.813 133.72 187.92 137.514C186.799 139.762 187.114 142.467 188.709 144.399L214.278 175.155L214.26 175.172Z" fill="white"/>
<path d="M220.096 367.488L269.552 247.556L268.518 164.019C268.465 160.172 265.346 157.063 261.508 157.063C258.283 157.063 255.479 159.259 254.691 162.385L249.258 184.2L197.892 135.74C194.808 132.841 189.813 133.72 187.92 137.514C186.799 139.762 187.114 142.467 188.709 144.399L214.278 175.155L205.691 189.821C198.839 201.537 196.315 215.29 198.541 228.674L200.731 241.883L127.372 367.47H220.114L220.096 367.488Z" fill="white"/>
<path d="M220.096 369.244C219.868 369.244 219.641 369.209 219.43 369.104C218.537 368.735 218.116 367.716 218.484 366.803L267.799 247.205L266.765 164.036C266.73 161.156 264.364 158.82 261.508 158.82C259.089 158.82 256.986 160.471 256.391 162.824L250.958 184.64C250.8 185.237 250.344 185.729 249.749 185.904C249.153 186.08 248.504 185.922 248.049 185.5L196.683 137.039C195.631 136.038 194.194 135.617 192.757 135.863C191.32 136.126 190.129 137.022 189.48 138.322C188.674 139.955 188.902 141.905 190.058 143.292L215.627 174.048C216.101 174.61 216.171 175.418 215.785 176.068L207.198 190.735C200.573 202.064 198.102 215.448 200.258 228.411L202.449 241.619C202.519 242.023 202.449 242.445 202.238 242.796L128.879 368.383C128.388 369.227 127.319 369.508 126.478 369.016C125.637 368.524 125.356 367.452 125.847 366.609L198.891 241.567L196.806 228.99C194.51 215.22 197.139 200.992 204.184 188.961L212.14 175.348L187.36 145.541C185.309 143.082 184.906 139.621 186.343 136.741C187.5 134.44 189.603 132.841 192.144 132.402C194.685 131.946 197.209 132.701 199.084 134.475L248.276 180.881L252.991 161.981C253.972 158.064 257.46 155.324 261.508 155.324C266.292 155.324 270.218 159.224 270.27 164.001L271.304 247.539C271.304 247.785 271.269 248.013 271.164 248.224L221.709 368.155C221.428 368.84 220.78 369.244 220.096 369.244Z" fill="#2C5680"/>
<path d="M237.989 201.15C237.113 201.15 236.359 200.5 236.254 199.605C236.132 198.639 236.815 197.76 237.779 197.637C241.599 197.163 242.756 193.018 243.089 190.963L213.524 176.735C212.648 176.314 212.28 175.26 212.701 174.399C213.121 173.521 214.173 173.152 215.032 173.574L245.718 188.346C246.349 188.644 246.734 189.312 246.717 190.014C246.559 193.51 244.561 200.325 238.217 201.133C238.147 201.133 238.077 201.133 238.007 201.133L237.989 201.15Z" fill="#2C5680"/>
<path d="M237.271 214.394C236.745 214.394 236.219 214.359 235.676 214.271C234.712 214.131 234.064 213.235 234.204 212.269C234.344 211.303 235.22 210.67 236.202 210.793C237.849 211.039 239.199 210.741 240.338 209.88C242.16 208.492 243.019 205.998 243.387 204.505L206.918 187.819C206.041 187.415 205.656 186.378 206.041 185.483C206.444 184.604 207.478 184.218 208.372 184.604L246.103 201.871C246.804 202.187 247.207 202.924 247.12 203.68C247.085 203.926 246.366 209.687 242.476 212.655C240.969 213.797 239.234 214.377 237.288 214.377L237.271 214.394Z" fill="#2C5680"/>
<path d="M217.485 228.27C217.345 228.27 217.222 228.27 217.082 228.217C216.136 227.989 215.557 227.041 215.785 226.11C217.117 220.419 212.964 217.398 212.788 217.257C212.052 216.73 211.825 215.747 212.28 214.956C212.718 214.183 213.682 213.85 214.506 214.218C219.658 216.484 228.105 219.119 230.716 217.925C232.995 216.888 233.398 214.64 233.433 213.34L204.534 201.835C203.64 201.484 203.202 200.448 203.553 199.552C203.903 198.656 204.937 198.217 205.831 198.568L235.764 210.495C236.342 210.723 236.763 211.25 236.85 211.865C237.201 214.166 236.675 219.066 232.153 221.139C229.034 222.562 223.233 221.139 218.764 219.646C219.518 221.56 219.886 224.002 219.185 226.935C218.992 227.743 218.274 228.288 217.485 228.288V228.27Z" fill="#2C5680"/>
<path d="M184.065 400.035H350.324C357.001 400.035 362.417 405.462 362.417 412.155V414.139H184.065V400.035Z" fill="#2C5680"/>
<path d="M253.271 414.139H91.0949L55.4666 306.187C52.0317 295.753 59.7777 285.004 70.7308 285.004H199.031C205.971 285.004 212.122 289.465 214.296 296.052L253.271 414.122V414.139Z" fill="#2C5680"/>
<path d="M154.956 352.101C154.956 358.424 149.839 363.553 143.53 363.553C137.221 363.553 132.103 358.424 132.103 352.101C132.103 345.778 137.221 340.649 143.53 340.649C149.839 340.649 154.956 345.778 154.956 352.101Z" fill="white"/>
<path d="M143.53 365.292C136.274 365.292 130.351 359.373 130.351 352.083C130.351 344.794 136.257 338.875 143.53 338.875C150.802 338.875 156.708 344.794 156.708 352.083C156.708 359.373 150.802 365.292 143.53 365.292ZM143.53 342.405C138.202 342.405 133.856 346.744 133.856 352.101C133.856 357.458 138.185 361.797 143.53 361.797C148.875 361.797 153.203 357.441 153.203 352.101C153.203 346.761 148.857 342.405 143.53 342.405Z" fill="#2C5680"/>
<path d="M368.112 281.983L368.848 282.123C381.94 284.6 394.768 276.714 398.501 263.891L415.64 204.962L363.784 195.143L348.046 249.225C343.77 263.926 353.076 279.137 368.095 281.983H368.112Z" fill="white"/>
<path d="M404.95 136.144L404.845 136.618C399.833 158.486 403.776 181.443 415.798 200.36L388.389 225.196L355.862 211.004C350.973 208.861 346.662 205.577 343.314 201.431C331.888 187.257 333.974 166.513 347.994 154.903L367.113 139.077C377.856 130.189 393.015 129.012 404.985 136.144H404.95Z" fill="white"/>
<path d="M429.66 204.207C425.191 210.424 416.534 211.83 410.33 207.333C404.126 202.854 402.724 194.177 407.211 187.959C411.679 181.741 420.337 180.336 426.541 184.833C432.744 189.312 434.146 197.989 429.66 204.207Z" fill="white"/>
<path d="M414.256 196.566C413.747 196.566 413.222 196.338 412.889 195.898C412.293 195.143 412.415 194.037 413.169 193.439C413.467 193.194 420.635 187.538 426.453 190.436C427.329 190.875 427.68 191.911 427.242 192.79C426.804 193.65 425.752 194.019 424.893 193.58C421.739 192.017 416.937 194.932 415.36 196.197C415.044 196.461 414.659 196.583 414.273 196.583L414.256 196.566Z" fill="#2C5680"/>
<path d="M369.549 200.237C368.778 200.237 367.99 200.132 367.184 199.903C359.052 197.532 359.21 183.147 359.227 182.532C359.227 181.952 359.525 181.425 359.998 181.109C360.471 180.793 361.067 180.723 361.611 180.933L381.291 188.557C381.782 188.75 382.15 189.136 382.308 189.628C382.483 190.12 382.413 190.664 382.15 191.103C381.905 191.525 376.559 200.255 369.549 200.255V200.237ZM362.82 185.149C363.153 189.294 364.45 195.442 368.165 196.513C372.091 197.655 375.999 193.492 377.926 190.998L362.837 185.149H362.82Z" fill="#2C5680"/>
<path d="M364.222 152.11C364.415 151.091 363.643 150.143 362.68 149.949C361.365 149.704 359.911 150.09 358.859 150.915C358.772 150.986 358.701 151.074 358.614 151.144C358.246 151.249 357.895 151.425 357.597 151.688C357.177 152.075 356.791 152.514 356.598 153.058C356.371 153.743 356.301 154.446 356.546 155.131C356.826 155.869 357.37 156.396 358.036 156.782C358.579 157.098 359.21 157.169 359.806 157.169C360.962 157.169 362.084 156.536 362.802 155.658C363.626 154.657 363.959 153.357 364.204 152.11H364.222Z" fill="#2C5680"/>
<path d="M387.057 165.793C387.004 165.196 386.654 164.704 386.146 164.405C385.953 164.265 385.725 164.177 385.462 164.142C385.147 164.089 384.831 164.142 384.516 164.247C383.447 164.511 382.43 165.248 381.764 166.109C381.484 166.46 381.256 166.864 381.063 167.286C380.941 167.479 380.836 167.69 380.748 167.901C380.397 168.709 380.24 169.692 380.432 170.57C380.468 170.904 380.59 171.203 380.783 171.466C380.923 171.677 381.116 171.853 381.344 171.958C381.87 172.274 382.395 172.292 382.974 172.116C385.585 171.273 387.302 168.498 387.074 165.793H387.057Z" fill="#2C5680"/>
<path d="M362.697 170.869C361.909 170.869 361.19 170.325 360.997 169.517C360.769 168.568 361.348 167.62 362.294 167.391C362.294 167.391 367.026 165.898 370.829 155.254C371.162 154.341 372.161 153.866 373.072 154.2C373.983 154.534 374.456 155.535 374.123 156.448C369.672 168.919 363.766 170.658 363.118 170.816C362.978 170.851 362.837 170.869 362.715 170.869H362.697Z" fill="#2C5680"/>
<path d="M353.654 165.933C350.307 165.933 347.012 164.967 344.156 163.07C340.283 160.523 337.619 156.606 336.673 152.04C335.726 147.49 336.62 142.836 339.161 138.936C341.702 135.055 345.61 132.385 350.167 131.436C354.706 130.488 359.35 131.366 363.24 133.93C367.113 136.477 369.777 140.394 370.724 144.961C371.67 149.51 370.776 154.165 368.235 158.064C365.694 161.946 361.786 164.616 357.229 165.564C356.038 165.81 354.846 165.933 353.654 165.933ZM353.707 134.616C349.185 134.616 344.752 136.829 342.088 140.886C337.882 147.297 339.669 155.939 346.083 160.137C352.48 164.352 361.102 162.561 365.291 156.132C369.497 149.721 367.709 141.079 361.295 136.881C358.947 135.336 356.318 134.598 353.707 134.598V134.616Z" fill="#FF882E"/>
<path d="M390.527 185.202C387.25 185.202 383.955 184.288 381.011 182.356C373.002 177.087 370.759 166.267 376.016 158.24C381.274 150.213 392.069 147.965 400.078 153.234C408.087 158.503 410.33 169.323 405.073 177.35C401.743 182.444 396.187 185.202 390.509 185.202H390.527ZM390.562 153.884C386.04 153.884 381.607 156.097 378.943 160.154C374.754 166.566 376.542 175.207 382.938 179.405C389.335 183.621 397.957 181.829 402.146 175.401C406.334 168.989 404.547 160.348 398.15 156.15C395.802 154.604 393.173 153.866 390.562 153.866V153.884Z" fill="#FF882E"/>
<path d="M368.796 216.941C365.676 216.941 362.329 216.66 358.842 215.94C357.895 215.746 357.282 214.816 357.475 213.867C357.667 212.919 358.596 212.304 359.543 212.497C375.122 215.694 387.986 209.511 388.108 209.458C388.985 209.037 390.019 209.388 390.457 210.266C390.877 211.145 390.527 212.181 389.651 212.62C389.195 212.831 380.643 216.958 368.796 216.958V216.941Z" fill="#2C5680"/>
<path d="M358.141 360.673L429.239 346.656L446.274 368.436C456.368 381.346 457.49 399.174 449.06 413.244H370.951C354.478 413.244 332.957 399.42 337.163 383.454L358.141 360.673Z" fill="white"/>
<path d="M449.06 415H370.951C359.402 415 346.171 408.694 339.476 400C335.341 394.625 333.956 388.741 335.463 383.015C335.533 382.734 335.674 382.488 335.866 382.277L356.844 359.496C357.089 359.215 357.422 359.039 357.79 358.969L428.889 344.952C429.537 344.829 430.203 345.075 430.606 345.584L447.641 367.365C458.121 380.766 459.277 399.561 450.55 414.157C450.234 414.684 449.656 415.018 449.043 415.018L449.06 415ZM338.758 384.315C337.444 389.988 339.915 394.783 342.263 397.839C348.239 405.62 360.577 411.469 370.951 411.469H448.061C455.509 398.243 454.283 381.504 444.907 369.508L428.538 348.57L359.052 362.271L338.758 384.297V384.315Z" fill="#2C5680"/>
<path d="M334.359 397.558L340.931 393.922C340.931 393.922 354.53 411.54 372.283 399.104C376.629 396.065 376.84 367.804 368.515 358.125C352.2 339.191 321.864 315.496 304.164 327.3C286.463 339.103 262.98 362.165 262.98 362.165C262.98 362.165 272.724 375.04 281.995 367.891C294.963 357.88 310.928 350.608 310.928 350.608L282.888 390.374C282.888 390.374 288.672 396.996 296.383 399.473C304.094 401.949 314.556 409.063 334.359 397.541V397.558Z" fill="white"/>
<path d="M275.563 371.967C267.975 371.967 261.385 364.888 261.035 364.502C260.421 363.834 260.421 362.798 261.035 362.13C261.964 361.094 284.185 336.697 303.305 325.789C312.506 320.537 333.36 317.604 369.812 356.949C370.478 357.669 370.426 358.775 369.725 359.425C369.024 360.075 367.902 360.04 367.254 359.338C355.231 346.357 325.089 317.411 305.057 328.845C288.847 338.102 269.639 358.073 264.803 363.254C267.414 365.608 273.968 370.614 279.681 367.347C282.836 365.538 286.709 362.763 290.81 359.847C298.854 354.086 307.178 348.131 312.611 347.727C313.575 347.675 314.416 348.377 314.486 349.343C314.556 350.309 313.837 351.152 312.874 351.223C308.422 351.556 300.15 357.476 292.843 362.71C288.672 365.696 284.728 368.524 281.416 370.421C279.453 371.545 277.491 371.984 275.58 371.984L275.563 371.967Z" fill="#2C5680"/>
<path d="M292.247 399.192C286.604 399.192 282.468 393.922 280.838 390.532C280.557 389.935 280.628 389.215 281.031 388.688L320.953 337.241C321.548 336.486 322.653 336.346 323.406 336.943C324.177 337.54 324.3 338.646 323.704 339.402L284.501 389.935C285.815 392.148 289.565 397.383 294.823 395.099C295.699 394.713 296.751 395.117 297.119 396.013C297.504 396.908 297.101 397.945 296.207 398.314C294.805 398.911 293.491 399.174 292.229 399.174L292.247 399.192Z" fill="#2C5680"/>
<path d="M305.303 405.673C299.379 405.673 293.403 401.387 293.07 401.142C292.667 400.86 292.422 400.404 292.352 399.93C292.299 399.438 292.439 398.946 292.755 398.577L335.989 348.131C336.62 347.394 337.724 347.306 338.46 347.938C339.196 348.571 339.284 349.677 338.653 350.415L296.716 399.35C299.94 401.247 305.601 403.583 308.983 401.036C314.836 396.645 348.221 362.534 348.572 362.201C349.255 361.516 350.36 361.498 351.043 362.183C351.726 362.868 351.744 363.975 351.061 364.66C349.676 366.065 317.132 399.315 311.069 403.846C309.299 405.181 307.283 405.673 305.268 405.673H305.303Z" fill="#2C5680"/>
<path d="M317.938 405.901C315.064 405.901 312.33 405.216 309.824 403.653C309.001 403.144 308.755 402.055 309.281 401.229C309.789 400.404 310.876 400.158 311.699 400.685C319.586 405.656 331.415 398.893 339.967 392.342C349.571 384.964 357.264 376.182 357.352 376.094C358 375.357 359.105 375.286 359.823 375.919C360.559 376.551 360.629 377.675 359.998 378.395C358.877 379.695 335.831 405.901 317.956 405.901H317.938Z" fill="#2C5680"/>
<path d="M375.788 388.723C375.788 388.723 375.666 388.723 375.596 388.723C374.632 388.618 373.931 387.757 374.053 386.791C375.368 374.865 373.072 365.643 367.236 359.338C355.214 346.357 325.071 317.411 305.04 328.845C304.199 329.32 303.13 329.039 302.656 328.195C302.183 327.352 302.464 326.281 303.305 325.807C312.506 320.555 333.36 317.621 369.812 356.966C376.367 364.045 378.978 374.215 377.541 387.195C377.436 388.091 376.682 388.758 375.806 388.758L375.788 388.723Z" fill="#2C5680"/>
<path d="M429.239 348.412C428.381 348.412 427.645 347.798 427.505 346.919C427.364 345.953 428.013 345.057 428.977 344.917L448.202 342.001C449.148 341.843 450.059 342.511 450.199 343.477C450.34 344.443 449.691 345.338 448.727 345.479L429.502 348.395C429.415 348.395 429.327 348.412 429.239 348.412Z" fill="#2C5680"/>
<path d="M360.261 291.292C385.077 299.741 411.171 288.974 418.549 267.228C419.618 264.102 420.214 260.905 420.424 257.708C404.459 250.243 386.987 246.186 368.971 246.186H333.974C331.555 246.186 329.154 246.362 326.788 246.625C325.86 265.402 339.214 284.108 360.261 291.274V291.292Z" fill="white"/>
<path d="M133.856 99.5564H84.0148V246.186H133.856V99.5564Z" fill="#2C5680"/>
<path d="M59.8829 209.933H10.0418V246.186H59.8829V209.933Z" fill="#FF882E"/>
<path d="M35.2953 203.258C54.7884 203.258 70.5906 187.42 70.5906 167.883C70.5906 148.346 54.7884 132.508 35.2953 132.508C15.8023 132.508 0 148.346 0 167.883C0 187.42 15.8023 203.258 35.2953 203.258Z" fill="#FF882E"/>
<path d="M33.7181 187.292C27.0586 186.695 22.2567 183.024 22.2567 176.841H28.9162C29.1265 179.581 30.6687 181.601 33.7181 182.146V170.114C28.2503 168.744 22.2567 167.216 22.2567 159.505C22.2567 153.375 26.9534 149.159 33.7181 148.562V144.065H37.2757V148.492C43.5496 149.036 47.8082 152.479 48.2989 158.662H41.6394C41.4291 156.466 39.8869 154.446 37.2757 153.796V165.617C42.7435 166.935 48.6844 168.41 48.6844 176.121C48.6844 181.425 44.6362 186.572 37.2757 187.239V191.718H33.7181V187.292ZM33.7181 164.686V153.638C30.7213 154.025 28.5833 155.834 28.5833 159.171C28.5833 162.508 30.7739 163.773 33.7181 164.704V164.686ZM37.2581 171.027V182.146C40.5353 181.601 42.393 179.3 42.393 176.455C42.393 173.328 40.2023 171.976 37.2581 171.045V171.027Z" fill="white"/>
<path d="M108.935 70.9084C108.322 70.9084 107.691 70.7855 107.113 70.5396L62.5467 51.4644V72.2785C62.5467 72.9459 63.125 75.5104 70.5731 80.5339C93.8814 96.2191 123.989 96.2191 147.298 80.5339C154.746 75.5279 155.324 72.9635 155.324 72.2785V51.4644L110.758 70.5396C110.18 70.7855 109.566 70.9084 108.935 70.9084Z" fill="#2C5680"/>
<path d="M52.3471 75.5631C53.7316 74.4039 54.6429 72.4893 54.6429 70.3113C54.6429 67.782 53.4162 65.604 51.6286 64.5501V41.0486L108.935 65.5864L185.52 32.7932L108.935 0L32.3511 32.7932L46.8443 38.9935V64.5501C45.0568 65.604 43.83 67.782 43.83 70.3113C43.83 72.4893 44.7413 74.4039 46.1258 75.5631L43.7599 92.5657C43.5146 94.3046 44.864 95.8503 46.599 95.8503H51.8564C53.6089 95.8503 54.9408 94.3046 54.6955 92.5657L52.3296 75.5631H52.3471Z" fill="#2C5680"/>
</g>
<defs>
<clipPath id="clip0_242_26705">
<rect width="505" height="415" fill="white"/>
</clipPath>
</defs>
</svg>
